<svg id="Слой_1" data-name="Слой 1" xmlns="http://www.w3.org/2000/svg" viewBox="0 0 391.34 714.26">
  <defs>
    <style>
      .cls-1 {
        fill: #3c5b64;
      }

      .cls-2 {
        fill: #406169;
      }

      .cls-3 {
        fill: #c0c9b9;
      }

      .cls-4 {
        fill: #575757;
      }

      .cls-5 {
        fill: #313035;
      }

      .cls-6 {
        fill: #38565c;
      }

      .cls-7 {
        fill: #c9ab90;
      }

      .cls-8 {
        fill: #ead0b6;
      }

      .cls-9 {
        fill: none;
      }

      .cls-10 {
        fill: #456a76;
      }

      .cls-11 {
        fill: #374d64;
      }

      .cls-12 {
        fill: #55b5c1;
      }

      .cls-13 {
        fill: #fff;
      }

      .cls-14 {
        fill: #b85548;
      }

      .cls-15 {
        fill: #ac4e45;
      }

      .cls-16 {
        fill: #e8e7e7;
      }

      .cls-17 {
        fill: #4a708d;
      }

      .cls-18 {
        fill: #40616b;
      }

      .cls-19 {
        fill: #314a55;
      }

      .cls-20 {
        fill: #deb79a;
      }

      .cls-21 {
        fill: #3b5a62;
      }

      .cls-22 {
        fill: #8a8387;
      }

      .cls-23 {
        fill: #dab99e;
      }

      .cls-24 {
        fill: #79553d;
      }

      .cls-25 {
        fill: #dd7d7c;
      }

      .cls-26 {
        fill: #ecd2b7;
      }

      .cls-27 {
        fill: #1a1615;
      }

      .cls-28 {
        fill: #edb445;
      }

      .cls-29 {
        fill: #dfe0e0;
      }
    </style>
  </defs>
  <title>officeMen</title>
  <g>
    <path class="cls-1" d="M234.22,519l6.46,246.42h26.08s.86-167.24,44-167.24V509.73Z" transform="translate(-51.29 -121.43)"/>
    <path class="cls-2" d="M386.27,519l-6.33,246.42H353.86s-1.11-167.24-44.25-167.24V509.73Z" transform="translate(-51.29 -121.43)"/>
    <path class="cls-3" d="M195,816.2s-4.7.79-4.31,8.61,22.7,13.31,39.54,9.79S276.77,815,276.77,815s1.17-8.61-1.17-10.18S195,816.2,195,816.2Z" transform="translate(-51.29 -121.43)"/>
    <path class="cls-4" d="M241.26,786.85s-6.76-1.18-16.94,5.48-30.53,6.65-32.1,26.62c0,0,4.31,7.44,22.7,7.44s59.5-17.62,59.5-17.62,5.87-18.4-5.09-20.36Z" transform="translate(-51.29 -121.43)"/>
    <path class="cls-5" d="M266.06,781.53s10.11,14.79-7.51,16.35c0,0-9.56-11.44-17.3-11v-9.05l24.55-5Z" transform="translate(-51.29 -121.43)"/>
    <path class="cls-3" d="M428.14,816.2s4.7.79,4.31,8.61-22.7,13.31-39.54,9.79S346.32,815,346.32,815s-1.17-8.61,1.17-10.18S428.14,816.2,428.14,816.2Z" transform="translate(-51.29 -121.43)"/>
    <path class="cls-4" d="M381.84,786.85s6.76-1.18,16.94,5.48,30.53,6.65,32.1,26.62c0,0-4.31,7.44-22.7,7.44s-59.5-17.62-59.5-17.62-5.87-18.4,5.09-20.36Z" transform="translate(-51.29 -121.43)"/>
    <path class="cls-5" d="M357,781.53s-10.11,14.79,7.51,16.35c0,0,9.56-11.44,17.3-11v-9.05l-24.55-5Z" transform="translate(-51.29 -121.43)"/>
    <rect class="cls-6" x="181.24" y="637.61" width="41.17" height="20.99" rx="5.14" ry="5.14"/>
    <rect class="cls-6" x="294.57" y="637.61" width="41.17" height="20.99" rx="5.14" ry="5.14"/>
    <g>
      <g>
        <path class="cls-7" d="M336,288H283.4v12.43h-.18a42.91,42.91,0,0,1-7.51,11.37c8.86-2.55,52.09-15.18,60.25-21.35Z" transform="translate(-51.29 -121.43)"/>
        <path class="cls-8" d="M336,307.91V290.49c-8.16,6.17-51.39,18.8-60.25,21.35a43,43,0,0,1-12.33,9.34c5.14,7.33-.62,22.52,7.38,26.66l5.57,10.93,4.5,7.93L311.26,411l24.64-48,6-5.57,3-7.71,6.86-7.71c7.19-4.1-2.41-14.26,2.3-21C346.56,317.42,340.28,315,336,307.91Z" transform="translate(-51.29 -121.43)"/>
      </g>
      <g>
        <path class="cls-9" d="M309.66,471.33h0Z" transform="translate(-51.29 -121.43)"/>
        <path class="cls-10" d="M387.19,431.82c-1.17-20.21-1.62-39.68-1.67-57.11l0,0,0-.06s0-.08,0-.13l0,0,13.91-51.59c-3.39-3.4-14.17-3.22-14.17-3.22h-21a36.78,36.78,0,0,1-14.77-3.89l-.09.11,2.18,1.29,8.82,36.18-12.1,3,8.07,15.13-41.05,81.21L311,465.11l-7.2-17.37-6.29-9.25-33.85-67,8.07-15.13-12.1-3,8.82-36.18,2.18-1.29-.09-.11a36.79,36.79,0,0,1-14.77,3.89H237.25v.11h-.36A22,22,0,0,0,215.5,347l-27.6,53L92.44,356l-4,38.31,16.19-2.85s87.55,42.52,98.72,43.47c3.95,1.06,10.55-4.57,13.21-9.68l20.39-39.14c-.13,2.62-.26,5.1-.39,7.42v2.17L235,448.44l-1.79,23.18-2.85,52.64,160.45-.63-4-90.89Zm-77.53,39.51h0Z" transform="translate(-51.29 -121.43)"/>
      </g>
      <g>
        <path class="cls-9" d="M385.52,374.61l0-.11,0,0S385.52,374.56,385.52,374.61Z" transform="translate(-51.29 -121.43)"/>
        <path class="cls-9" d="M309.66,471.33h0Z" transform="translate(-51.29 -121.43)"/>
        <path class="cls-11" d="M385.52,374.71s0-.07,0-.11l0,.06Z" transform="translate(-51.29 -121.43)"/>
        <path class="cls-12" d="M309.66,471.33h0Z" transform="translate(-51.29 -121.43)"/>
      </g>
      <path class="cls-13" d="M342.24,323.38a47.62,47.62,0,0,1-62.88,1.89L311,465.14Z" transform="translate(-51.29 -121.43)"/>
      <polygon class="cls-14" points="267.86 320.73 275.01 303.23 266.5 223.69 259.78 221.73 259.78 221.64 259.63 221.68 259.49 221.64 259.49 221.73 252.77 223.69 243.67 308.5 254.5 329.01 259.67 343.51 261.37 340.49 265.6 328.54 267.86 320.73"/>
      <polygon class="cls-15" points="269.92 210.62 259.4 209.18 248.88 210.62 246.83 216.47 251.8 224.36 259.4 224.65 267 224.36 271.97 216.47 269.92 210.62"/>
      <polygon class="cls-16" points="225.18 191.04 258.92 209.18 234.98 233.13 217.2 195.76 225.18 191.04"/>
      <polygon class="cls-16" points="292.74 191.04 259 209.18 282.95 233.13 300.72 195.76 292.74 191.04"/>
      <path class="cls-9" d="M310.07,463.24l5.31-10.51c-3.95-4.16-12.27,4.42-12.27,4.42v2.06l4.52-.78Z" transform="translate(-51.29 -121.43)"/>
      <polygon class="cls-5" points="259.74 343.71 228.08 203.83 225.18 191.04 219.38 194.47 217.2 195.76 208.38 231.94 220.48 234.97 212.42 250.09 259.74 343.71"/>
      <polygon class="cls-5" points="310.16 231.94 301.34 195.76 301.24 195.7 293.36 191.04 290.95 201.94 259.74 343.71 306.12 250.09 298.06 234.97 310.16 231.94"/>
      <g>
        <rect class="cls-17" x="73.05" y="250.49" width="148.79" height="188.46" transform="translate(-116.59 -85.44) rotate(-11.41)"/>
        <rect class="cls-13" x="80.88" y="260.41" width="133.13" height="168.62" transform="translate(-116.59 -85.44) rotate(-11.41)"/>
        <g>
          <g>
            <path class="cls-18" d="M154.6,242.08,128,248.28l-26.91,4.6a30.83,30.83,0,0,1,.33,17.55l28.79-5.81,2.09-.42,29.26-5.91A33.73,33.73,0,0,1,154.6,242.08Z" transform="translate(-51.29 -121.43)"/>
            <path class="cls-19" d="M161.88,257.63a3.18,3.18,0,0,1-2.49,3.75l-55.28,11.16a3.19,3.19,0,0,1-3.76-2.49h0a3.19,3.19,0,0,1,2.5-3.75l55.28-11.16a3.19,3.19,0,0,1,3.75,2.49Z" transform="translate(-51.29 -121.43)"/>
            <path class="cls-19" d="M155.67,242.17a2.88,2.88,0,0,1-2.25,3.39l-49.94,10.08a2.88,2.88,0,0,1-3.39-2.25h0a2.88,2.88,0,0,1,2.25-3.39l49.94-10.08a2.88,2.88,0,0,1,3.39,2.25Z" transform="translate(-51.29 -121.43)"/>
          </g>
          <path class="cls-19" d="M142.95,240.5A16.4,16.4,0,0,0,110.79,247l1,4.74,32.16-6.49Zm-15.87,4.28a6.37,6.37,0,1,1,5-7.5A6.37,6.37,0,0,1,127.08,244.79Z" transform="translate(-51.29 -121.43)"/>
        </g>
      </g>
      <path class="cls-20" d="M61,352.9a7.72,7.72,0,0,0,1.1-.08l21.28-3a7.68,7.68,0,1,0-2.17-15.2l-21.28,3A7.68,7.68,0,0,0,61,352.9Z" transform="translate(-51.29 -121.43)"/>
      <path class="cls-20" d="M59.92,369.55l20.85-2.6a7.68,7.68,0,1,0-1.9-15.23L58,354.31A7.68,7.68,0,0,0,59,369.61,7.8,7.8,0,0,0,59.92,369.55Z" transform="translate(-51.29 -121.43)"/>
      <path class="cls-20" d="M85.21,382.11A7.68,7.68,0,1,0,82.38,367l-20.84,3.91A7.68,7.68,0,1,0,64.36,386Z" transform="translate(-51.29 -121.43)"/>
      <path class="cls-20" d="M95.26,388.2a6.87,6.87,0,0,0-7.91-5.65l-18.67,3.11a6.87,6.87,0,1,0,2.26,13.56l18.67-3.11A6.87,6.87,0,0,0,95.26,388.2Z" transform="translate(-51.29 -121.43)"/>
      <ellipse class="cls-10" cx="392.27" cy="341.31" rx="18.38" ry="22.12" transform="translate(-159.47 78.76) rotate(-25.28)"/>
      <circle class="cls-5" cx="256.27" cy="309.34" r="2.55"/>
      <circle class="cls-5" cx="264.04" cy="310.1" r="2.55"/>
      <path class="cls-20" d="M284,393.78s2.29,2.57,8.56,4.28l-1.9,34.4a20.71,20.71,0,0,0-11.21,1.36Z" transform="translate(-51.29 -121.43)"/>
      <path class="cls-21" d="M386.17,434.93c-11-7.66-33.56-11.51-54-12.6l-9.94,20.3,64.64,3Z" transform="translate(-51.29 -121.43)"/>
      <g>
        <g>
          <rect class="cls-22" x="98.67" y="375.87" width="52.7" height="3.76" transform="translate(-121.85 -90.2) rotate(-11.13)"/>
          <rect class="cls-22" x="99.8" y="381.59" width="52.7" height="3.76" transform="translate(-122.93 -89.87) rotate(-11.13)"/>
          <rect class="cls-22" x="100.92" y="387.31" width="52.7" height="3.76" transform="translate(-124.01 -89.55) rotate(-11.13)"/>
          <rect class="cls-22" x="102.05" y="393.04" width="52.7" height="3.76" transform="translate(-125.1 -89.22) rotate(-11.13)"/>
          <rect class="cls-22" x="103.17" y="398.76" width="52.7" height="3.76" transform="translate(-126.18 -88.9) rotate(-11.13)"/>
          <rect class="cls-22" x="104.3" y="404.48" width="52.7" height="3.76" transform="translate(-127.26 -88.57) rotate(-11.13)"/>
          <rect class="cls-22" x="105.43" y="410.2" width="52.7" height="3.76" transform="translate(-128.35 -88.25) rotate(-11.13)"/>
          <rect class="cls-22" x="106.55" y="415.93" width="52.7" height="3.76" transform="translate(-129.43 -87.92) rotate(-11.13)"/>
        </g>
        <g>
          <rect class="cls-22" x="156.01" y="364.59" width="52.7" height="3.76" transform="translate(-118.59 -79.34) rotate(-11.13)"/>
          <rect class="cls-22" x="157.13" y="370.31" width="52.7" height="3.76" transform="translate(-119.67 -79.02) rotate(-11.13)"/>
          <rect class="cls-22" x="158.26" y="376.03" width="52.7" height="3.76" transform="translate(-120.76 -78.69) rotate(-11.13)"/>
          <rect class="cls-22" x="159.39" y="381.76" width="52.7" height="3.76" transform="translate(-121.84 -78.37) rotate(-11.13)"/>
          <rect class="cls-22" x="160.51" y="387.48" width="52.7" height="3.76" transform="translate(-122.93 -78.04) rotate(-11.13)"/>
          <rect class="cls-22" x="161.64" y="393.2" width="52.7" height="3.76" transform="matrix(0.98, -0.19, 0.19, 0.98, -124.01, -77.72)"/>
          <rect class="cls-22" x="162.76" y="398.93" width="52.7" height="3.76" transform="translate(-125.09 -77.39) rotate(-11.13)"/>
          <rect class="cls-22" x="163.89" y="404.65" width="52.7" height="3.76" transform="translate(-126.17 -77.07) rotate(-11.13)"/>
        </g>
      </g>
      <g>
        <path class="cls-13" d="M305.19,393.36l-13.3-.65a3.34,3.34,0,0,0-3.49,3.17l-.85,17.48-.85,17.48a3.34,3.34,0,0,0,3.17,3.5l13.3.65a3.34,3.34,0,0,0,3.49-3.17l.85-17.48.85-17.48A3.34,3.34,0,0,0,305.19,393.36Z" transform="translate(-51.29 -121.43)"/>
        <path class="cls-20" d="M240.13,427.91a5.37,5.37,0,0,1,5.29-5.06.47.47,0,0,0,0-.07l-5-.24a5.39,5.39,0,0,1,.52-10.76l-5.38-.26a5.39,5.39,0,1,1,.52-10.76l-21.52-1a5.39,5.39,0,1,1,.52-10.76l3.44.17,28.85,1.4,3.89.19a1.66,1.66,0,0,0,1.49-1.16,1.61,1.61,0,0,0-.52-1.78c-5-4.21-10.08-4.21-9.81-9.91a3.73,3.73,0,0,1,5.71-3l35.46,18.62a2.7,2.7,0,0,1,1.27,2.42l-1.53,31.43a8.08,8.08,0,0,1-8.46,7.68l-29.59-1.44A5.4,5.4,0,0,1,240.13,427.91Z" transform="translate(-51.29 -121.43)"/>
      </g>
      <path class="cls-10" d="M419.29,443.59l-1,0L293,438.34l1.94-46.64,95.29,7.51-20.51-48.57,40.06-15.26L440,409.54a23.34,23.34,0,0,1-20.74,34Z" transform="translate(-51.29 -121.43)"/>
      <g>
        <path class="cls-9" d="M291.32,262.77a6.89,6.89,0,0,0,6.89,6.89h11V255.87h-11A6.89,6.89,0,0,0,291.32,262.77Z" transform="translate(-51.29 -121.43)"/>
        <path class="cls-9" d="M320.07,269.66a6.89,6.89,0,1,0,0-13.79H309.23v13.79Z" transform="translate(-51.29 -121.43)"/>
      </g>
      <path class="cls-8" d="M369.21,224c-1.44,9.89,1.33,18.48,6.18,19.2s10-6.72,11.4-16.61-1.33-18.48-6.18-19.2S370.66,214.16,369.21,224Z" transform="translate(-51.29 -121.43)"/>
      <path class="cls-23" d="M248.26,223.24c.95,9.76-1.91,18-6.36,18.46s-8.82-7.12-9.77-16.89,1.91-18,6.36-18.46S247.33,213.48,248.26,223.24Z" transform="translate(-51.29 -121.43)"/>
      <g>
        <path class="cls-23" d="M309.93,149.41c-58.89-1.58-65.49,22.81-65.49,68.87,0,46.72,29.19,84.68,65.49,85.72.51,0,1,0,1.53,0h0V149.38C311,149.39,310.44,149.42,309.93,149.41Z" transform="translate(-51.29 -121.43)"/>
        <path class="cls-8" d="M378.48,218.28c0-47.37-28.48-68.92-65.5-68.92l-1.52,0V304.05C348.48,304.05,378.48,265.65,378.48,218.28Z" transform="translate(-51.29 -121.43)"/>
      </g>
      <path class="cls-24" d="M242.65,224s-6.76-49.2-1.65-54.52,7.88-3.62,7.88-3.62-6.39-9.79-4.26-14.27,20.65-36.2,76.23-29.17S379.4,181,379.4,181s-1.49,40.24-3.19,47.7l-3-.43-6-49s-6.81,12.14-27.47,5.11S294,144.16,255.9,166.73c0,0-6,7.45-6.17,10.86s-6.39,40-3.83,49.61Z" transform="translate(-51.29 -121.43)"/>
      <path class="cls-24" d="M256.31,202.37a2.67,2.67,0,0,1-1.18-5.07A45.73,45.73,0,0,1,266.66,194a64.15,64.15,0,0,1,28.63,1.82,2.67,2.67,0,1,1-1.5,5.12c-21-6.12-36.15,1.13-36.3,1.2A2.66,2.66,0,0,1,256.31,202.37Z" transform="translate(-51.29 -121.43)"/>
      <path class="cls-24" d="M358,202.37a2.66,2.66,0,0,1-1.17-.27,41.77,41.77,0,0,0-10.29-2.92,58.85,58.85,0,0,0-26,1.72,2.67,2.67,0,1,1-1.5-5.12A64.15,64.15,0,0,1,347.64,194a45.74,45.74,0,0,1,11.52,3.35,2.67,2.67,0,0,1-1.17,5.07Z" transform="translate(-51.29 -121.43)"/>
      <path class="cls-24" d="M374.21,225.34c-9.2,30.55-26,38.29-33.71,40.25-.56-1.67-2.92-7.51-12.77-9.83a49.6,49.6,0,0,0-12.6-2.12c-1.06,0-2.16-.08-3.3-.08h-4c-1.15,0-2.26,0-3.33.08a50.13,50.13,0,0,0-12.28,2c-10.07,2.3-12.48,8.2-13.05,9.89-7.71-2-24.48-9.75-33.66-40.24L242.69,224s5.08,83.71,66.83,84.45v0h.6v0C371.86,307.73,377,224,377,224Z" transform="translate(-51.29 -121.43)"/>
      <g>
        <g>
          <ellipse class="cls-23" cx="249.65" cy="125.71" rx="7.28" ry="5.04"/>
          <ellipse class="cls-8" cx="268.52" cy="125.71" rx="7.28" ry="5.04"/>
        </g>
        <g>
          <path class="cls-23" d="M302.89,249.81c0,2.73,3.13,4.95,7,5V244.77C306,244.86,302.89,247.08,302.89,249.81Z" transform="translate(-51.29 -121.43)"/>
          <path class="cls-8" d="M310.16,244.77h-.23v10.07h.23c4,0,7.28-2.26,7.28-5S314.18,244.77,310.16,244.77Z" transform="translate(-51.29 -121.43)"/>
        </g>
      </g>
      <g>
        <g>
          <g>
            <path class="cls-25" d="M290.79,268.78a17.37,17.37,0,0,0,.66,2,23.69,23.69,0,0,0,8.27,10.88,16.18,16.18,0,0,0,19.85,0,23.7,23.7,0,0,0,8.27-10.89,17.38,17.38,0,0,0,.66-2Z" transform="translate(-51.29 -121.43)"/>
            <path class="cls-26" d="M309.65,286.54h-.11a21.25,21.25,0,0,1-10.64-3.65,25.17,25.17,0,0,1-8.8-11.54,19.42,19.42,0,0,1-.72-2.17,1.33,1.33,0,0,1,.27-1.18,1.39,1.39,0,0,1,1.13-.5h37.72a1.36,1.36,0,0,1,1.4,1.7,19.83,19.83,0,0,1-.72,2.16,25.15,25.15,0,0,1-8.8,11.53,21.25,21.25,0,0,1-10.64,3.65Zm-16.87-16.16s0,0,0,0a22.21,22.21,0,0,0,7.75,10.18,14.78,14.78,0,0,0,18.21,0,22.17,22.17,0,0,0,7.75-10.15s0,0,0,0Z" transform="translate(-51.29 -121.43)"/>
          </g>
          <path class="cls-13" d="M319.57,281.7H299.72a16.19,16.19,0,0,0,19.85,0Z" transform="translate(-51.29 -121.43)"/>
        </g>
        <g>
          <path class="cls-13" d="M290.79,268.83a18.11,18.11,0,0,0,.66,2c.15.38.32.8.53,1.26h35.35c.2-.45.38-.88.53-1.26a18.06,18.06,0,0,0,.66-2Z" transform="translate(-51.29 -121.43)"/>
          <path class="cls-25" d="M292,272.08a23.18,23.18,0,0,0,7.75,9.61h19.85a23.18,23.18,0,0,0,7.75-9.61Z" transform="translate(-51.29 -121.43)"/>
        </g>
      </g>
      <path class="cls-13" d="M292,215.81s-6.63,6.31-14.81,6.31-14.81-6.31-14.81-6.31,6.63-6.31,14.81-6.31S292,215.81,292,215.81Z" transform="translate(-51.29 -121.43)"/>
      <path class="cls-13" d="M358.49,215.81s-6.63,6.31-14.81,6.31-14.81-6.31-14.81-6.31,6.63-6.31,14.81-6.31S358.49,215.81,358.49,215.81Z" transform="translate(-51.29 -121.43)"/>
      <g>
        <circle class="cls-27" cx="225.22" cy="94.45" r="5.63"/>
        <circle class="cls-13" cx="226.54" cy="92.95" r="1.89"/>
      </g>
      <g>
        <circle class="cls-27" cx="292.11" cy="94.45" r="5.63"/>
        <circle class="cls-13" cx="293.43" cy="92.95" r="1.89"/>
      </g>
    </g>
  </g>
  <g>
    <polygon class="cls-28" points="84.92 165.11 60.26 232.33 132.06 217.8 84.92 165.11"/>
    <path class="cls-29" d="M136.12,306.08l-13.94,2.82-1-5L155.09,297l1,5-14,2.83,8.25,40.79-6,1.21Z" transform="translate(-51.29 -121.43)"/>
  </g>
</svg>
