<svg id="Phone" xmlns="http://www.w3.org/2000/svg" viewBox="0 0 349.85 729.45"><defs><style>.cls-1,.cls-11,.cls-2{fill:#fff;}.cls-1,.cls-2{stroke:#a8a8a8;}.cls-1,.cls-2,.cls-6,.cls-7,.cls-9{stroke-miterlimit:10;}.cls-1{stroke-width:4.45px;}.cls-2{stroke-width:3.34px;}.cls-3{fill:#2b2b2b;}.cls-4{fill:#919191;}.cls-5{fill:#f2f2f2;}.cls-6,.cls-7{fill:none;}.cls-6{stroke:#f7f7f7;}.cls-7,.cls-9{stroke:#fff;}.cls-8,.cls-9{fill:#efefef;}.cls-10{fill:#d80027;}.cls-12{fill:#4ed964;}.cls-13{fill:#f4f4f4;}</style></defs><title>phoneCall</title><rect class="cls-1" x="2.23" y="2.23" width="345.4" height="725" rx="42.75" ry="42.75"/><circle class="cls-2" cx="175.74" cy="675.65" r="27.62"/><circle class="cls-3" cx="230.22" cy="51.89" r="4.06"/><rect class="cls-3" x="140.01" y="47.82" width="68.27" height="8.13"/><rect id="ScrinePhone" class="cls-4" x="22.75" y="86.58" width="306.64" height="546.03"/><g id="Слой_2" data-name="Слой 2"><g id="sell"><rect class="cls-5" x="36.5" y="101.35" width="7" height="7" rx="3.5" ry="3.5"/><rect class="cls-5" x="45.33" y="101.35" width="7" height="7" rx="3.5" ry="3.5"/><rect class="cls-5" x="53.85" y="101.35" width="7" height="7" rx="3.5" ry="3.5"/><rect class="cls-6" x="62.37" y="101.35" width="7" height="7" rx="3.5" ry="3.5"/></g><g id="chandje"><rect class="cls-7" x="297.33" y="101.6" width="18.2" height="6.5"/><rect class="cls-8" x="297.65" y="101.93" width="11.05" height="5.85"/><rect class="cls-9" x="315.85" y="103.88" width="0.65" height="1.95"/></g><g id="bckCall"><circle class="cls-10" cx="271.32" cy="577.62" r="40.6"/><path class="cls-11" d="M252.22,601.49a2.2,2.2,0,0,1-.81-1.87l.41-9a3.6,3.6,0,0,1,.28-1.37,4.68,4.68,0,0,1,.72-1.25l.2-.21q.16-.18.44-.44a22.2,22.2,0,0,1,2.39-1.78,22.49,22.49,0,0,1,4.73-2.26,42,42,0,0,1,7.44-1.84,50.08,50.08,0,0,1,10.45-.45,52.76,52.76,0,0,1,8.41.89,45.28,45.28,0,0,1,6.42,1.71,30.21,30.21,0,0,1,4.65,2.07,24.78,24.78,0,0,1,3.12,2,11.93,11.93,0,0,1,1.76,1.62l.62.74a4.68,4.68,0,0,1,.61,1.3,3.61,3.61,0,0,1,.16,1.39l-.37,9a2.12,2.12,0,0,1-.68,1.54,1.8,1.8,0,0,1-1.06.48,3.35,3.35,0,0,1-1.21-.1L290.48,600a2.34,2.34,0,0,1-1.32-1.08,3,3,0,0,1-.44-1.69l.14-3.33a.8.8,0,0,0-.09-.34,1.19,1.19,0,0,0-.19-.31,8.69,8.69,0,0,0-2.2-1.11,21.21,21.21,0,0,0-3.22-.87,31.27,31.27,0,0,0-5.11-.5,31.89,31.89,0,0,0-5.17.08,22.24,22.24,0,0,0-3.3.58,7.49,7.49,0,0,0-1.75.66l-.52.32a1.15,1.15,0,0,0-.18.27.8.8,0,0,0-.12.34l-.13,3.91a3,3,0,0,1-1,1.94,2.52,2.52,0,0,1-1.15.67l0,0-10.55,2.25A2.42,2.42,0,0,1,252.22,601.49Z" transform="translate(-6.5 -14.77)"/></g><g id="call"><circle class="cls-12" cx="88.98" cy="575.44" r="40.6"/><path class="cls-11" d="M115.93,607a2.2,2.2,0,0,1-1,1.79L107.6,614a3.6,3.6,0,0,1-1.25.62,4.68,4.68,0,0,1-1.42.2l-.29,0-.62-.08a22.2,22.2,0,0,1-2.87-.79,22.49,22.49,0,0,1-4.69-2.34,42,42,0,0,1-6-4.73,50.08,50.08,0,0,1-6.79-8,52.76,52.76,0,0,1-4.47-7.18,45.28,45.28,0,0,1-2.6-6.11,30.21,30.21,0,0,1-1.23-4.94,24.78,24.78,0,0,1-.31-3.71,11.93,11.93,0,0,1,.2-2.38q.19-.85.2-.94a4.68,4.68,0,0,1,.65-1.28,3.61,3.61,0,0,1,1-1l7.36-5.27a2.12,2.12,0,0,1,1.63-.41,1.8,1.8,0,0,1,1,.54,3.35,3.35,0,0,1,.66,1l3.49,10.48a2.34,2.34,0,0,1,0,1.7,3,3,0,0,1-1.06,1.39l-2.71,1.94a.8.8,0,0,0-.22.28,1.19,1.19,0,0,0-.13.34,8.69,8.69,0,0,0,.48,2.42,21.21,21.21,0,0,0,1.3,3.07,31.27,31.27,0,0,0,2.75,4.33,31.89,31.89,0,0,0,3.24,4,22.24,22.24,0,0,0,2.48,2.24,7.49,7.49,0,0,0,1.6,1l.57.22a1.15,1.15,0,0,0,.32,0,.8.8,0,0,0,.34-.12l3.16-2.31a3,3,0,0,1,2.12-.43,2.52,2.52,0,0,1,1.24.5h0l8.27,6.93A2.42,2.42,0,0,1,115.93,607Z" transform="translate(-6.5 -14.77)"/></g><path class="cls-13" d="M89.89,319.22A5.17,5.17,0,0,1,88,323.54a8.86,8.86,0,0,1-5.56,1.5H74.91V305H82a8.25,8.25,0,0,1,5,1.37,4.42,4.42,0,0,1,1.83,3.75A4.54,4.54,0,0,1,86,314.41a4.78,4.78,0,0,1,3.87,4.81Zm-12.33-5.82H82a5.87,5.87,0,0,0,3.24-.7,2.63,2.63,0,0,0,1-2.34,2.58,2.58,0,0,0-1-2.22,6.15,6.15,0,0,0-3.51-.75H77.56Zm0,9.27h4.83q4.76,0,4.76-3.45A3.06,3.06,0,0,0,86,316.6a7,7,0,0,0-4-.83H77.56Z" transform="translate(-6.5 -14.77)"/><path class="cls-13" d="M105.15,325H102l-3.61-5.66L94.73,325h-3.2l5.36-7.53-4.94-7h3.2l3.19,5.07,3.19-5.07h3.2l-4.94,6.95Z" transform="translate(-6.5 -14.77)"/><path class="cls-13" d="M113.12,310.21a6.46,6.46,0,0,1,5,2,9.4,9.4,0,0,1,0,11.2,7.15,7.15,0,0,1-9.9,0,9.4,9.4,0,0,1,0-11.2A6.44,6.44,0,0,1,113.12,310.21Zm0,13.15a3.69,3.69,0,0,0,3-1.4,8.14,8.14,0,0,0,0-8.34,3.9,3.9,0,0,0-6,0,8.14,8.14,0,0,0,0,8.34A3.69,3.69,0,0,0,113.12,323.36Z" transform="translate(-6.5 -14.77)"/><path class="cls-13" d="M134.83,323h2.09v5.91h-2.57V325H123.48v3.9h-2.57V323h1.29q2.53-3.58,2.53-11.8v-.7h10.1Zm-2.58-10.47H127.3q-.29,7-2.21,10.47h7.16Z" transform="translate(-6.5 -14.77)"/><path class="cls-13" d="M143.81,310.54h6.7V325h-2.58v-5.66h-2.3a2.73,2.73,0,0,0-1.77.57,5.6,5.6,0,0,0-1.36,1.91L140.93,325h-3l2-3.64a4.47,4.47,0,0,1,2.54-2.35q-3.87-.78-3.87-4.29a3.79,3.79,0,0,1,1.38-3.09A5.86,5.86,0,0,1,143.81,310.54Zm4.12,6.84v-4.81h-3.72q-2.94,0-2.94,2.3,0,2.52,3.64,2.52Z" transform="translate(-6.5 -14.77)"/><path class="cls-13" d="M172.48,325H154.31V310.54h2.58V323h5.46v-12.5h2.57V323h5.47v-12.5H173V323h2.11v5.91h-2.58Z" transform="translate(-6.5 -14.77)"/><path class="cls-13" d="M177.27,325V310.54h2.58v11l6.49-11h2.78V325h-2.58V314L180,325Z" transform="translate(-6.5 -14.77)"/><path class="cls-13" d="M192.92,325V310.54h2.58v11l6.49-11h2.78V325h-2.58V314l-6.49,11Zm10-20.22a3.75,3.75,0,0,1-1.26,2.63,4.67,4.67,0,0,1-5.6,0,3.67,3.67,0,0,1-1.23-2.62h1.68a2.1,2.1,0,0,0,2.35,1.86,2.16,2.16,0,0,0,2.38-1.86Z" transform="translate(-6.5 -14.77)"/><path class="cls-13" d="M224.45,317.48q2.68,1.22,2.68,3.55a3.76,3.76,0,0,1-1.63,3.11,7.48,7.48,0,0,1-4.6,1.24,7.62,7.62,0,0,1-4.43-1.18,4,4,0,0,1-1.87-2.93h2.65a1.8,1.8,0,0,0,1,1.44,4.62,4.62,0,0,0,2.63.66,4.75,4.75,0,0,0,2.67-.65,2,2,0,0,0,1-1.7,2.19,2.19,0,0,0-.51-1.48,2.45,2.45,0,0,0-1.25-.79,10.09,10.09,0,0,0-2.36-.2h-.93v-2h.93q2.41,0,3.06-.65a2,2,0,0,0,.66-1.48q0-2.24-3.08-2.24t-3.23,1.65h-2.65a3.06,3.06,0,0,1,1.57-2.63,7.55,7.55,0,0,1,4.2-1,7,7,0,0,1,4.31,1.18,3.64,3.64,0,0,1,1.54,3A3.26,3.26,0,0,1,224.45,317.48Z" transform="translate(-6.5 -14.77)"/><path class="cls-13" d="M236.8,325H230V310.54h5.88q5.36,0,5.36,3.84a3.13,3.13,0,0,1-1.89,3.13A3.29,3.29,0,0,1,241.9,321a3.61,3.61,0,0,1-1.37,3A5.77,5.77,0,0,1,236.8,325Zm-4.2-12.48v4.06h3a4.31,4.31,0,0,0,2.32-.47,2,2,0,0,0,0-3.1,4.64,4.64,0,0,0-2.48-.49Zm0,6.07V323H236q3.25,0,3.25-2.19t-3.47-2.21Z" transform="translate(-6.5 -14.77)"/><path class="cls-13" d="M250.76,310.21a6.46,6.46,0,0,1,5,2,9.4,9.4,0,0,1,0,11.2,7.15,7.15,0,0,1-9.9,0,9.4,9.4,0,0,1,0-11.2A6.44,6.44,0,0,1,250.76,310.21Zm0,13.15a3.69,3.69,0,0,0,3-1.4,8.14,8.14,0,0,0,0-8.34,3.9,3.9,0,0,0-6,0,8.14,8.14,0,0,0,0,8.34A3.69,3.69,0,0,0,250.76,323.36Z" transform="translate(-6.5 -14.77)"/><path class="cls-13" d="M260.45,325V310.54H263v6h6.6v-6h2.57V325h-2.57v-6.47H263V325Z" transform="translate(-6.5 -14.77)"/><path class="cls-13" d="M281.9,310.21a6.46,6.46,0,0,1,5,2,9.4,9.4,0,0,1,0,11.2,7.15,7.15,0,0,1-9.9,0,9.4,9.4,0,0,1,0-11.2A6.44,6.44,0,0,1,281.9,310.21Zm0,13.15a3.69,3.69,0,0,0,3-1.4,8.14,8.14,0,0,0,0-8.34,3.9,3.9,0,0,0-6,0,8.14,8.14,0,0,0,0,8.34A3.69,3.69,0,0,0,281.9,323.36Z" transform="translate(-6.5 -14.77)"/><path class="cls-13" d="M303.58,325h-3.08L295.86,318l-1.68,1.76V325h-2.58V310.54h2.58v6.19l5.59-6.19H303l-5.5,5.71Z" transform="translate(-6.5 -14.77)"/></g></svg>