<svg id="Phone" xmlns="http://www.w3.org/2000/svg" viewBox="0 0 349.85 729.45"><defs><style>.cls-1,.cls-12,.cls-2{fill:#fff;}.cls-1,.cls-2{stroke:#a8a8a8;}.cls-1,.cls-2,.cls-6,.cls-7,.cls-9{stroke-miterlimit:10;}.cls-1{stroke-width:4.45px;}.cls-2{stroke-width:3.34px;}.cls-3{fill:#2b2b2b;}.cls-4{fill:#919191;}.cls-5{fill:#f2f2f2;}.cls-6,.cls-7{fill:none;}.cls-6{stroke:#f7f7f7;}.cls-7,.cls-9{stroke:#fff;}.cls-8,.cls-9{fill:#efefef;}.cls-10{fill:#dbdbdb;opacity:0.7;}.cls-11{fill:#4ed964;}</style></defs><title>phoneMessages</title><rect class="cls-1" x="2.23" y="2.23" width="345.4" height="725" rx="42.75" ry="42.75"/><circle class="cls-2" cx="175.74" cy="675.65" r="27.62"/><circle class="cls-3" cx="230.22" cy="51.89" r="4.06"/><rect class="cls-3" x="140.01" y="47.82" width="68.27" height="8.13"/><rect id="ScrinePhone" class="cls-4" x="22.75" y="86.58" width="306.64" height="546.03"/><g id="Слой_2" data-name="Слой 2"><g id="sell"><rect class="cls-5" x="36.5" y="101.35" width="7" height="7" rx="3.5" ry="3.5"/><rect class="cls-5" x="45.33" y="101.35" width="7" height="7" rx="3.5" ry="3.5"/><rect class="cls-5" x="53.85" y="101.35" width="7" height="7" rx="3.5" ry="3.5"/><rect class="cls-6" x="62.37" y="101.35" width="7" height="7" rx="3.5" ry="3.5"/></g><g id="chandje"><rect class="cls-7" x="297.33" y="101.6" width="18.2" height="6.5"/><rect class="cls-8" x="297.65" y="101.93" width="11.05" height="5.85"/><rect class="cls-9" x="315.85" y="103.88" width="0.65" height="1.95"/></g><rect class="cls-10" x="37.5" y="225.23" width="278" height="341" rx="12" ry="12"/><rect class="cls-11" x="46.94" y="234.29" width="32.56" height="29.2" rx="5.76" ry="5.76"/><g id="mailbox"><rect class="cls-7" x="53.25" y="243.33" width="19.95" height="11.11"/><path class="cls-7" d="M69.72,263.66,60,258.35c-.26-.14-.3,0,0,0h19c.39,0,.82.29.49.48Z" transform="translate(-6.5 -14.77)"/></g><path class="cls-12" d="M115.29,269.33a9,9,0,0,1-3.72.67c-4,0-7-2.5-7-7.12a7,7,0,0,1,7.35-7.39,7.54,7.54,0,0,1,3.34.63l-.44,1.48A6.62,6.62,0,0,0,112,257c-3.3,0-5.49,2.11-5.49,5.8,0,3.44,2,5.66,5.41,5.66a7.28,7.28,0,0,0,3-.58Z" transform="translate(-6.5 -14.77)"/><path class="cls-12" d="M126.64,264.65c0,3.74-2.59,5.36-5,5.36-2.73,0-4.84-2-4.84-5.2,0-3.38,2.21-5.36,5-5.36S126.64,261.56,126.64,264.65Zm-8,.1c0,2.21,1.27,3.88,3.07,3.88s3.07-1.65,3.07-3.92c0-1.71-.86-3.88-3-3.88S118.63,262.84,118.63,264.76Z" transform="translate(-6.5 -14.77)"/><path class="cls-12" d="M138.1,264.65c0,3.74-2.59,5.36-5,5.36-2.73,0-4.84-2-4.84-5.2,0-3.38,2.21-5.36,5-5.36S138.1,261.56,138.1,264.65Zm-8,.1c0,2.21,1.27,3.88,3.07,3.88s3.07-1.65,3.07-3.92c0-1.71-.86-3.88-3-3.88S130.08,262.84,130.08,264.76Z" transform="translate(-6.5 -14.77)"/><path class="cls-12" d="M148.05,256.26a13.7,13.7,0,0,1-2.11.46,5,5,0,0,0-3.59,1.9,7.21,7.21,0,0,0-1.11,3.34h.06a3.82,3.82,0,0,1,3.51-2.28c2.48,0,4.3,1.77,4.3,5s-1.71,5.34-4.68,5.34c-3.55,0-4.72-3.4-4.72-6.76a9,9,0,0,1,1.57-5.59,6.06,6.06,0,0,1,4.34-2.38,14.75,14.75,0,0,0,2.5-.54ZM144.44,261a2.45,2.45,0,0,0-2.27,1.38,4.42,4.42,0,0,0-.5,2.15c0,1.67.81,4.07,2.82,4.07s2.78-2,2.78-3.82C147.26,263.17,146.61,261,144.44,261Z" transform="translate(-6.5 -14.77)"/><path class="cls-12" d="M153.19,259.69v8.66h3.53v-8.66h1.79v8.66H162v-8.66h1.82v8.73l1,0-.1,4.57h-1.42l-.08-3.21H151.39v-10.1Z" transform="translate(-6.5 -14.77)"/><path class="cls-12" d="M168,265.07a3.24,3.24,0,0,0,3.47,3.51,6.65,6.65,0,0,0,2.8-.52l.31,1.31a8.17,8.17,0,0,1-3.36.63c-3.11,0-5-2-5-5.09s1.79-5.45,4.74-5.45c3.3,0,4.17,2.9,4.17,4.76a7,7,0,0,1-.06.86Zm5.39-1.31c0-1.17-.48-3-2.55-3-1.86,0-2.67,1.71-2.82,3Z" transform="translate(-6.5 -14.77)"/><path class="cls-12" d="M179.21,259.69v4.07H184v-4.07h1.82v10.1H184v-4.57h-4.8v4.57h-1.82v-10.1Z" transform="translate(-6.5 -14.77)"/><path class="cls-12" d="M190.52,259.69v4.26c0,1.61,0,2.61-.1,4l.06,0c.61-1.23,1-1.94,1.63-3.11l3.15-5.22h2.15v10.1h-1.75v-4.28c0-1.65,0-2.5.13-4.13h-.06c-.65,1.29-1.08,2.11-1.67,3.13-1,1.57-2.07,3.51-3.15,5.28h-2.11v-10.1Z" transform="translate(-6.5 -14.77)"/><path class="cls-12" d="M201.41,265.07a3.24,3.24,0,0,0,3.46,3.51,6.64,6.64,0,0,0,2.8-.52l.31,1.31a8.18,8.18,0,0,1-3.36.63c-3.11,0-5-2-5-5.09s1.8-5.45,4.74-5.45c3.3,0,4.17,2.9,4.17,4.76a6.8,6.8,0,0,1-.06.86Zm5.39-1.31c0-1.17-.48-3-2.55-3-1.86,0-2.67,1.71-2.82,3Z" transform="translate(-6.5 -14.77)"/><path class="cls-12" d="M65.82,304.14v13.27l1.3,0L67,322.54h-1.5L65.35,319H56l-.13,3.56h-1.5l-.13-5.08,1.12,0a17.45,17.45,0,0,0,1.45-3.26,22,22,0,0,0,.7-6.25v-3.76Zm-6.51,4.38a20.3,20.3,0,0,1-.75,6.05,14.49,14.49,0,0,1-1.21,2.82H63.9V305.72H59.3Z" transform="translate(-6.5 -14.77)"/><path class="cls-12" d="M69.58,308.32H72l1.94,5.37c.26.79.73,2.09,1,2.93h0c.24-.79.84-2.49,1.25-3.65l1.72-4.64h2.4L81,319H79.17l-.24-5.08c-.07-1.14-.15-2.51-.2-3.81h-.07c-.29,1-.57,1.83-1.17,3.45l-2,5.37H74l-1.89-5.26c-.33-1-.79-2.55-1.06-3.54H71c0,1.25-.11,2.66-.18,3.83l-.26,5H68.78Z" transform="translate(-6.5 -14.77)"/><path class="cls-12" d="M85.31,308.32v4.49c0,1.69,0,2.75-.11,4.27l.07,0c.64-1.3,1-2,1.72-3.28l3.32-5.5h2.27V319H90.72v-4.51c0-1.74,0-2.64.13-4.36h-.07c-.68,1.36-1.14,2.22-1.76,3.3-1,1.65-2.18,3.7-3.32,5.57H83.48V308.32Z" transform="translate(-6.5 -14.77)"/><path class="cls-12" d="M102.84,308.32v1.54H99.52V319H97.6v-9.11H94.28v-1.54Z" transform="translate(-6.5 -14.77)"/><path class="cls-12" d="M104.53,311.8c0-1.36,0-2.46-.09-3.48h1.74l.09,1.83h0a4.19,4.19,0,0,1,3.78-2.07c2.57,0,4.51,2.18,4.51,5.41,0,3.83-2.33,5.72-4.84,5.72a3.73,3.73,0,0,1-3.28-1.67h0v5.79h-1.91Zm1.91,2.84a4.37,4.37,0,0,0,.09.79,3,3,0,0,0,2.9,2.27c2,0,3.23-1.67,3.23-4.11,0-2.13-1.12-4-3.17-4a3.09,3.09,0,0,0-2.93,2.4,3.15,3.15,0,0,0-.13.79Z" transform="translate(-6.5 -14.77)"/><path class="cls-12" d="M118.83,308.32v4.49c0,1.69,0,2.75-.11,4.27l.07,0c.64-1.3,1-2,1.72-3.28l3.32-5.5h2.27V319h-1.85v-4.51c0-1.74,0-2.64.13-4.36h-.07c-.68,1.36-1.14,2.22-1.76,3.3-1,1.65-2.18,3.7-3.32,5.57H117V308.32Z" transform="translate(-6.5 -14.77)"/><path class="cls-12" d="M131,308.32v4.49c0,1.69,0,2.75-.11,4.27l.07,0c.64-1.3,1-2,1.72-3.28l3.32-5.5h2.27V319h-1.85v-4.51c0-1.74,0-2.64.13-4.36h-.07c-.68,1.36-1.14,2.22-1.76,3.3-1,1.65-2.18,3.7-3.32,5.57h-2.22V308.32Zm1.25-4.33c.07.95.53,1.67,1.41,1.67s1.39-.7,1.5-1.67h1.39a2.66,2.66,0,0,1-2.93,2.73,2.56,2.56,0,0,1-2.77-2.73Z" transform="translate(-6.5 -14.77)"/><path class="cls-12" d="M140.17,321.68a31.7,31.7,0,0,0,1.32-5.26l2.16-.22a26.84,26.84,0,0,1-2.09,5.35Z" transform="translate(-6.5 -14.77)"/><path class="cls-12" d="M158.89,308.32v9.2l1.1,0-.11,4.82h-1.52l-.09-3.39h-7.37l-.09,3.39H149.3l-.09-4.82.9,0a8.32,8.32,0,0,0,1.06-2.18,14.06,14.06,0,0,0,.62-4.25v-2.77Zm-5.39,3.23a14.12,14.12,0,0,1-.55,4,10.16,10.16,0,0,1-.86,2H157v-7.7h-3.5Z" transform="translate(-6.5 -14.77)"/><path class="cls-12" d="M171.85,313.56c0,3.94-2.73,5.65-5.3,5.65-2.88,0-5.1-2.11-5.1-5.48,0-3.56,2.33-5.65,5.28-5.65S171.85,310.3,171.85,313.56Zm-8.45.11c0,2.33,1.34,4.09,3.23,4.09s3.23-1.74,3.23-4.14c0-1.8-.9-4.09-3.19-4.09S163.4,311.64,163.4,313.67Z" transform="translate(-6.5 -14.77)"/><path class="cls-12" d="M182.35,304.71a14.54,14.54,0,0,1-2.22.48,5.22,5.22,0,0,0-3.79,2,7.6,7.6,0,0,0-1.17,3.52h.07a4,4,0,0,1,3.7-2.4c2.62,0,4.53,1.87,4.53,5.26s-1.8,5.63-4.93,5.63c-3.74,0-5-3.59-5-7.13a9.46,9.46,0,0,1,1.65-5.9,6.39,6.39,0,0,1,4.58-2.51,15.52,15.52,0,0,0,2.64-.57Zm-3.81,5a2.59,2.59,0,0,0-2.4,1.45,4.66,4.66,0,0,0-.53,2.27c0,1.76.86,4.29,3,4.29s2.93-2.07,2.93-4C181.51,312,180.83,309.75,178.54,309.75Z" transform="translate(-6.5 -14.77)"/><path class="cls-12" d="M185.91,311.8c0-1.36,0-2.46-.09-3.48h1.74l.09,1.83h0a4.19,4.19,0,0,1,3.78-2.07c2.57,0,4.51,2.18,4.51,5.41,0,3.83-2.33,5.72-4.84,5.72a3.73,3.73,0,0,1-3.28-1.67h0v5.79h-1.91Zm1.91,2.84a4.37,4.37,0,0,0,.09.79,3,3,0,0,0,2.9,2.27c2,0,3.23-1.67,3.23-4.11,0-2.13-1.12-4-3.17-4A3.09,3.09,0,0,0,188,312a3.17,3.17,0,0,0-.13.79Z" transform="translate(-6.5 -14.77)"/><path class="cls-12" d="M200.3,308.32V312a9.16,9.16,0,0,1,1.74-.13c2.29,0,4.6.95,4.6,3.56a3,3,0,0,1-1.1,2.46,6.71,6.71,0,0,1-4.29,1.23,26.4,26.4,0,0,1-2.86-.15V308.32Zm0,9.31a10.8,10.8,0,0,0,1.34.09c1.47,0,3.08-.62,3.08-2.27s-1.54-2.24-3-2.24a8.8,8.8,0,0,0-1.43.11Zm9.59-9.31V319H208V308.32Z" transform="translate(-6.5 -14.77)"/><path class="cls-12" d="M214.84,308.32v4.49c0,1.69,0,2.75-.11,4.27l.07,0c.64-1.3,1-2,1.72-3.28l3.32-5.5h2.27V319h-1.85v-4.51c0-1.74,0-2.64.13-4.36h-.07c-.68,1.36-1.14,2.22-1.76,3.3-1,1.65-2.18,3.7-3.32,5.57H213V308.32Zm1.25-4.33c.07.95.53,1.67,1.41,1.67s1.39-.7,1.5-1.67h1.39a2.66,2.66,0,0,1-2.93,2.73,2.56,2.56,0,0,1-2.77-2.73Z" transform="translate(-6.5 -14.77)"/><path class="cls-12" d="M238.16,308.32v9.2l1.1,0-.11,4.82h-1.52l-.09-3.39h-7.37l-.09,3.39h-1.52l-.09-4.82.9,0a8.32,8.32,0,0,0,1.06-2.18,14.06,14.06,0,0,0,.62-4.25v-2.77Zm-5.39,3.23a14.14,14.14,0,0,1-.55,4,10.19,10.19,0,0,1-.86,2h4.91v-7.7h-3.5Z" transform="translate(-6.5 -14.77)"/><path class="cls-12" d="M242.56,314a3.41,3.41,0,0,0,3.65,3.7,7,7,0,0,0,2.95-.55l.33,1.39a8.62,8.62,0,0,1-3.54.66c-3.28,0-5.24-2.16-5.24-5.37s1.89-5.74,5-5.74c3.48,0,4.4,3.06,4.4,5a7.21,7.21,0,0,1-.07.9Zm5.68-1.39c0-1.23-.51-3.15-2.68-3.15-2,0-2.82,1.8-3,3.15Z" transform="translate(-6.5 -14.77)"/><path class="cls-12" d="M254.37,308.32v4.29h5.06v-4.29h1.91V319h-1.91v-4.82h-5.06V319h-1.91V308.32Z" transform="translate(-6.5 -14.77)"/><path class="cls-12" d="M266.38,308.32v3.61a10.8,10.8,0,0,1,1.76-.11c2.4,0,4.93.75,4.93,3.59a3,3,0,0,1-1.12,2.44,7.39,7.39,0,0,1-4.62,1.23,26.4,26.4,0,0,1-2.86-.15V308.32Zm0,9.31a11.19,11.19,0,0,0,1.43.09c1.45,0,3.32-.48,3.32-2.27s-1.94-2.24-3.37-2.24a9.09,9.09,0,0,0-1.39.11Z" transform="translate(-6.5 -14.77)"/><path class="cls-12" d="M275.1,317.85a1.29,1.29,0,0,1,1.3-1.36,1.37,1.37,0,0,1,0,2.73A1.29,1.29,0,0,1,275.1,317.85Zm.55-3.15-.31-10.56h2.11l-.31,10.56Z" transform="translate(-6.5 -14.77)"/><path class="cls-12" d="M64,330.54v1.61h-6.4v4a16.64,16.64,0,0,1,1.83-.11,7,7,0,0,1,3.83,1,4.08,4.08,0,0,1,1.89,3.63,4.36,4.36,0,0,1-1.23,3.21,7.53,7.53,0,0,1-5.24,1.65,22.53,22.53,0,0,1-3-.18V330.54Zm-6.4,13.36a8.35,8.35,0,0,0,1.61.11,4.34,4.34,0,0,0,3.12-1.14,3,3,0,0,0,.81-2.18,2.77,2.77,0,0,0-1.21-2.42,5,5,0,0,0-2.82-.75c-.44,0-1,0-1.52.09Z" transform="translate(-6.5 -14.77)"/><path class="cls-12" d="M75.67,334.72v10.65H73.76v-9.13H70.1V339c0,3-.29,5-1.67,5.9a3.11,3.11,0,0,1-2.11.66l-.2-1.52a2.4,2.4,0,0,0,1.06-.44c1-.73,1.1-2.22,1.1-4.6v-4.29Z" transform="translate(-6.5 -14.77)"/><path class="cls-12" d="M84.73,345.37,84.58,344h-.07a4,4,0,0,1-3.26,1.58A3,3,0,0,1,78,342.55c0-2.57,2.29-4,6.4-4v-.22A2.2,2.2,0,0,0,82,335.91a5.31,5.31,0,0,0-2.77.79l-.44-1.28a6.61,6.61,0,0,1,3.5-.95c3.26,0,4,2.22,4,4.36v4a15,15,0,0,0,.18,2.55Zm-.29-5.43c-2.11,0-4.51.33-4.51,2.4a1.71,1.71,0,0,0,1.83,1.85,2.65,2.65,0,0,0,2.57-1.78,2,2,0,0,0,.11-.62Z" transform="translate(-6.5 -14.77)"/><path class="cls-12" d="M95.93,334.72v1.56H91.31v9.09H89.4V334.72Z" transform="translate(-6.5 -14.77)"/><path class="cls-12" d="M107.11,340c0,3.94-2.73,5.65-5.3,5.65-2.88,0-5.1-2.11-5.1-5.48,0-3.56,2.33-5.65,5.28-5.65S107.11,336.7,107.11,340Zm-8.45.11c0,2.33,1.34,4.09,3.23,4.09s3.23-1.74,3.23-4.14c0-1.8-.9-4.09-3.19-4.09S98.66,338,98.66,340.07Z" transform="translate(-6.5 -14.77)"/><path class="cls-12" d="M117.65,334.72v9.2l1.1,0-.11,4.82h-1.52l-.09-3.39h-7.37l-.09,3.39h-1.52l-.09-4.82.9,0a8.32,8.32,0,0,0,1.06-2.18,14.06,14.06,0,0,0,.62-4.25v-2.77ZM112.26,338a14.12,14.12,0,0,1-.55,4,10.13,10.13,0,0,1-.86,2h4.91v-7.7h-3.5Z" transform="translate(-6.5 -14.77)"/><path class="cls-12" d="M127,345.37,126.8,344h-.07a4,4,0,0,1-3.26,1.58,3,3,0,0,1-3.26-3.06c0-2.57,2.29-4,6.4-4v-.22a2.2,2.2,0,0,0-2.42-2.46,5.31,5.31,0,0,0-2.77.79l-.44-1.28a6.61,6.61,0,0,1,3.5-.95c3.26,0,4,2.22,4,4.36v4a15,15,0,0,0,.18,2.55Zm-.29-5.43c-2.11,0-4.51.33-4.51,2.4a1.71,1.71,0,0,0,1.83,1.85,2.65,2.65,0,0,0,2.57-1.78,2,2,0,0,0,.11-.62Z" transform="translate(-6.5 -14.77)"/><path class="cls-12" d="M131.66,338.2c0-1.36,0-2.46-.09-3.48h1.74l.09,1.83h0a4.19,4.19,0,0,1,3.78-2.07c2.57,0,4.51,2.18,4.51,5.41,0,3.83-2.33,5.72-4.84,5.72a3.73,3.73,0,0,1-3.28-1.67h0v5.79h-1.91Zm1.91,2.84a4.37,4.37,0,0,0,.09.79,3,3,0,0,0,2.9,2.27c2,0,3.23-1.67,3.23-4.11,0-2.13-1.12-4-3.17-4a3.09,3.09,0,0,0-2.93,2.4,3.15,3.15,0,0,0-.13.79Z" transform="translate(-6.5 -14.77)"/><path class="cls-12" d="M146,334.72v4.49c0,1.69,0,2.75-.11,4.27l.07,0c.64-1.3,1-2,1.72-3.28l3.32-5.5h2.27v10.65h-1.85v-4.51c0-1.74,0-2.64.13-4.36h-.07c-.68,1.36-1.14,2.22-1.76,3.3-1,1.65-2.18,3.7-3.32,5.57h-2.22V334.72Z" transform="translate(-6.5 -14.77)"/><path class="cls-12" d="M156.48,334.72h2.38l1.94,5.37c.26.79.73,2.09,1,2.93h0c.24-.79.84-2.49,1.25-3.65l1.72-4.64h2.4l.75,10.65h-1.85l-.24-5.08c-.07-1.14-.15-2.51-.2-3.81h-.07c-.29,1-.57,1.83-1.17,3.45l-2,5.37h-1.41L159,340c-.33-1-.79-2.55-1.06-3.54h-.09c0,1.25-.11,2.66-.18,3.83l-.26,5h-1.78Z" transform="translate(-6.5 -14.77)"/><path class="cls-12" d="M175.15,330.74a18.57,18.57,0,0,1,3.5-.31,6.13,6.13,0,0,1,4.07,1.08,3.11,3.11,0,0,1,1.23,2.62,3.52,3.52,0,0,1-2.51,3.26v0a3.82,3.82,0,0,1,3.06,3.72,4,4,0,0,1-1.25,3c-1,.95-2.71,1.39-5.13,1.39a22.41,22.41,0,0,1-3-.18Zm1.91,6.07h1.74c2,0,3.21-1.06,3.21-2.49,0-1.74-1.32-2.42-3.26-2.42a8.23,8.23,0,0,0-1.69.13Zm0,7.11a10.25,10.25,0,0,0,1.61.09c2,0,3.81-.73,3.81-2.88s-1.74-2.86-3.83-2.86h-1.58Z" transform="translate(-6.5 -14.77)"/><path class="cls-12" d="M192.91,345.37l-.15-1.34h-.07a4,4,0,0,1-3.26,1.58,3,3,0,0,1-3.26-3.06c0-2.57,2.29-4,6.4-4v-.22a2.2,2.2,0,0,0-2.42-2.46,5.31,5.31,0,0,0-2.77.79l-.44-1.28a6.61,6.61,0,0,1,3.5-.95c3.26,0,4,2.22,4,4.36v4a14.91,14.91,0,0,0,.18,2.55Zm-.29-5.43c-2.11,0-4.51.33-4.51,2.4a1.71,1.71,0,0,0,1.83,1.85,2.65,2.65,0,0,0,2.58-1.78,2,2,0,0,0,.11-.62Z" transform="translate(-6.5 -14.77)"/><path class="cls-12" d="M205.21,345a7.13,7.13,0,0,1-3.06.62,5.06,5.06,0,0,1-5.3-5.44,5.41,5.41,0,0,1,5.72-5.65,6.47,6.47,0,0,1,2.68.55l-.44,1.5a4.49,4.49,0,0,0-2.24-.51c-2.44,0-3.76,1.8-3.76,4a3.65,3.65,0,0,0,3.7,4,5.51,5.51,0,0,0,2.38-.53Z" transform="translate(-6.5 -14.77)"/><path class="cls-12" d="M213,339.19h.92c1.63,0,2.73-.75,2.73-1.74s-.86-1.54-2.07-1.54a5.14,5.14,0,0,0-2.57.75l-.48-1.19a6.76,6.76,0,0,1,3.54-1c1.63,0,3.61.73,3.61,2.79a2.71,2.71,0,0,1-2.4,2.42v0c1.58.13,2.9,1.1,2.9,2.66,0,2.31-2.35,3.17-4.6,3.17a7.3,7.3,0,0,1-3.45-.86l.51-1.3a6.14,6.14,0,0,0,2.82.73c1.61,0,2.62-.77,2.62-1.83,0-1.43-1.5-1.83-3.1-1.83h-1Z" transform="translate(-6.5 -14.77)"/><path class="cls-12" d="M227.51,345.37l-.15-1.34h-.07a4,4,0,0,1-3.26,1.58,3,3,0,0,1-3.26-3.06c0-2.57,2.29-4,6.4-4v-.22a2.2,2.2,0,0,0-2.42-2.46,5.31,5.31,0,0,0-2.77.79l-.44-1.28a6.61,6.61,0,0,1,3.5-.95c3.26,0,4,2.22,4,4.36v4a14.91,14.91,0,0,0,.18,2.55Zm-.29-5.43c-2.11,0-4.51.33-4.51,2.4a1.71,1.71,0,0,0,1.83,1.85,2.65,2.65,0,0,0,2.58-1.78,2,2,0,0,0,.11-.62Z" transform="translate(-6.5 -14.77)"/><path class="cls-12" d="M236.84,334.85a22.71,22.71,0,0,1,3.39-.24c1.78,0,4.73.29,4.73,2.66a2.52,2.52,0,0,1-2.22,2.4v0c1.56.22,2.71,1.1,2.71,2.64,0,2.79-3.52,3.15-5.61,3.15-1.19,0-2.42-.09-3-.13Zm1.83,9.24a11.66,11.66,0,0,0,1.56.09c1.3,0,3.23-.31,3.23-1.85s-1.54-1.87-3.39-1.87h-1.41Zm0-4.91h1.45c1.43,0,2.91-.42,2.91-1.67,0-1.06-.92-1.56-2.86-1.56a13.61,13.61,0,0,0-1.5.09Z" transform="translate(-6.5 -14.77)"/><path class="cls-12" d="M249.75,334.72v3.63a9.16,9.16,0,0,1,1.74-.13c2.29,0,4.6.95,4.6,3.56a3,3,0,0,1-1.1,2.46,6.71,6.71,0,0,1-4.29,1.23,26.4,26.4,0,0,1-2.86-.15V334.72Zm0,9.31a10.8,10.8,0,0,0,1.34.09c1.47,0,3.08-.62,3.08-2.27s-1.54-2.24-3-2.24a8.81,8.81,0,0,0-1.43.11Zm9.59-9.31v10.65h-1.92V334.72Z" transform="translate(-6.5 -14.77)"/><path class="cls-12" d="M270.57,331.11a14.51,14.51,0,0,1-2.22.48,5.22,5.22,0,0,0-3.79,2,7.6,7.6,0,0,0-1.17,3.52h.07a4,4,0,0,1,3.7-2.4c2.62,0,4.53,1.87,4.53,5.26s-1.8,5.63-4.93,5.63c-3.74,0-5-3.59-5-7.13a9.46,9.46,0,0,1,1.65-5.9,6.39,6.39,0,0,1,4.58-2.51,15.53,15.53,0,0,0,2.64-.57Zm-3.81,5a2.59,2.59,0,0,0-2.4,1.45,4.67,4.67,0,0,0-.53,2.27c0,1.76.86,4.29,3,4.29s2.93-2.07,2.93-4C269.73,338.4,269,336.15,266.76,336.15Z" transform="translate(-6.5 -14.77)"/><path class="cls-12" d="M283.77,340c0,3.94-2.73,5.65-5.3,5.65-2.88,0-5.1-2.11-5.1-5.48,0-3.56,2.33-5.65,5.28-5.65S283.77,336.7,283.77,340Zm-8.45.11c0,2.33,1.34,4.09,3.24,4.09s3.23-1.74,3.23-4.14c0-1.8-.9-4.09-3.19-4.09S275.32,338,275.32,340.07Z" transform="translate(-6.5 -14.77)"/><path class="cls-12" d="M286.21,338.2c0-1.36,0-2.46-.09-3.48h1.74l.09,1.83h0a4.19,4.19,0,0,1,3.78-2.07c2.57,0,4.51,2.18,4.51,5.41,0,3.83-2.33,5.72-4.84,5.72a3.73,3.73,0,0,1-3.28-1.67h0v5.79h-1.91Zm1.91,2.84a4.37,4.37,0,0,0,.09.79,3,3,0,0,0,2.9,2.27c2,0,3.23-1.67,3.23-4.11,0-2.13-1.12-4-3.17-4a3.09,3.09,0,0,0-2.93,2.4,3.17,3.17,0,0,0-.13.79Z" transform="translate(-6.5 -14.77)"/><path class="cls-12" d="M57.48,361.12v4.29h5.06v-4.29h1.91v10.65H62.54V367H57.48v4.82H55.56V361.12Z" transform="translate(-6.5 -14.77)"/><path class="cls-12" d="M73.51,371.77l-.15-1.34h-.07A4,4,0,0,1,70,372,3,3,0,0,1,66.78,369c0-2.57,2.29-4,6.4-4v-.22a2.2,2.2,0,0,0-2.42-2.46,5.31,5.31,0,0,0-2.77.79l-.44-1.28a6.61,6.61,0,0,1,3.5-.95c3.26,0,4,2.22,4,4.36v4a15,15,0,0,0,.18,2.55Zm-.29-5.43c-2.11,0-4.51.33-4.51,2.4a1.71,1.71,0,0,0,1.83,1.85,2.65,2.65,0,0,0,2.57-1.78,2,2,0,0,0,.11-.62Z" transform="translate(-6.5 -14.77)"/><path class="cls-12" d="M80.07,361.12v9.13h3.72v-9.13h1.89v9.13H89.4v-9.13h1.91v10.65H78.18V361.12Z" transform="translate(-6.5 -14.77)"/><path class="cls-12" d="M95.54,366.8a3.41,3.41,0,0,0,3.65,3.7,7,7,0,0,0,2.95-.55l.33,1.39a8.62,8.62,0,0,1-3.54.66c-3.28,0-5.24-2.16-5.24-5.37s1.89-5.74,5-5.74c3.48,0,4.4,3.06,4.4,5a7.32,7.32,0,0,1-.07.9Zm5.68-1.39c0-1.23-.51-3.15-2.68-3.15-2,0-2.82,1.8-3,3.15Z" transform="translate(-6.5 -14.77)"/><path class="cls-12" d="M107.26,361.12v4.49c0,1.69,0,2.75-.11,4.27l.07,0c.64-1.3,1-2,1.72-3.28l3.32-5.5h2.27v10.65h-1.85v-4.51c0-1.74,0-2.64.13-4.36h-.07c-.68,1.36-1.14,2.22-1.76,3.3-1,1.65-2.18,3.7-3.32,5.57h-2.22V361.12Zm1.25-4.33c.07.95.53,1.67,1.41,1.67s1.39-.7,1.5-1.67h1.39a2.66,2.66,0,0,1-2.93,2.73,2.56,2.56,0,0,1-2.77-2.73Z" transform="translate(-6.5 -14.77)"/><path class="cls-12" d="M124.25,361.12v4.62h.46l4-4.62h2.35l-4.64,4.82c1.72.18,2.75,1.32,3.59,3.23a22.43,22.43,0,0,0,1.14,2.6h-2a14.15,14.15,0,0,1-1-2.18,3.46,3.46,0,0,0-3.52-2.51h-.37v4.69h-1.91V361.12Z" transform="translate(-6.5 -14.77)"/><path class="cls-12" d="M142.37,366.36c0,3.94-2.73,5.65-5.3,5.65-2.88,0-5.1-2.11-5.1-5.48,0-3.56,2.33-5.65,5.28-5.65S142.37,363.1,142.37,366.36Zm-8.45.11c0,2.33,1.34,4.09,3.23,4.09s3.23-1.74,3.23-4.14c0-1.8-.9-4.09-3.19-4.09S133.92,364.44,133.92,366.47Z" transform="translate(-6.5 -14.77)"/><path class="cls-12" d="M144.92,361.12h2.38l1.94,5.37c.26.79.73,2.09,1,2.93h0c.24-.79.84-2.49,1.25-3.65l1.72-4.64h2.4l.75,10.65h-1.85l-.24-5.08c-.07-1.14-.15-2.51-.2-3.81H154c-.29,1-.57,1.83-1.17,3.45l-2,5.37h-1.41l-1.89-5.26c-.33-1-.79-2.55-1.06-3.54h-.09c0,1.25-.11,2.66-.18,3.83l-.26,5h-1.78Z" transform="translate(-6.5 -14.77)"/><path class="cls-12" d="M167.63,361.12v10.65h-1.94v-9.11h-5v9.11h-1.91V361.12Z" transform="translate(-6.5 -14.77)"/><path class="cls-12" d="M176.67,371.77l-.15-1.34h-.07a4,4,0,0,1-3.26,1.58,3,3,0,0,1-3.26-3.06c0-2.57,2.29-4,6.4-4v-.22a2.2,2.2,0,0,0-2.42-2.46,5.31,5.31,0,0,0-2.77.79l-.44-1.28a6.61,6.61,0,0,1,3.5-.95c3.26,0,4,2.22,4,4.36v4a15,15,0,0,0,.18,2.55Zm-.29-5.43c-2.11,0-4.51.33-4.51,2.4a1.71,1.71,0,0,0,1.83,1.85,2.65,2.65,0,0,0,2.57-1.78,2,2,0,0,0,.11-.62Z" transform="translate(-6.5 -14.77)"/><path class="cls-12" d="M183.25,361.12v4.29h5.06v-4.29h1.91v10.65h-1.91V367h-5.06v4.82h-1.91V361.12Z" transform="translate(-6.5 -14.77)"/><path class="cls-12" d="M195.17,361.12v4.49c0,1.69,0,2.75-.11,4.27l.07,0c.64-1.3,1-2,1.72-3.28l3.32-5.5h2.27v10.65h-1.85v-4.51c0-1.74,0-2.64.13-4.36h-.07c-.68,1.36-1.14,2.22-1.76,3.3-1,1.65-2.18,3.7-3.32,5.57h-2.22V361.12Z" transform="translate(-6.5 -14.77)"/><path class="cls-12" d="M207.36,361.12v4.49c0,1.69,0,2.75-.11,4.27l.07,0c.64-1.3,1-2,1.72-3.28l3.32-5.5h2.27v10.65h-1.85v-4.51c0-1.74,0-2.64.13-4.36h-.07c-.68,1.36-1.14,2.22-1.76,3.3-1,1.65-2.18,3.7-3.32,5.57h-2.22V361.12Z" transform="translate(-6.5 -14.77)"/><path class="cls-12" d="M217.39,370.65a1.29,1.29,0,0,1,1.3-1.36,1.37,1.37,0,0,1,0,2.73A1.29,1.29,0,0,1,217.39,370.65Zm.55-3.15-.31-10.56h2.11l-.31,10.56Z" transform="translate(-6.5 -14.77)"/><path class="cls-12" d="M240.05,365.26c-.11-2.07-.24-4.55-.22-6.4h-.07c-.51,1.74-1.12,3.59-1.87,5.63l-2.62,7.2h-1.45l-2.4-7.06c-.7-2.09-1.3-4-1.72-5.77h0c0,1.85-.15,4.33-.29,6.56l-.4,6.36h-1.83l1-14.83h2.44l2.53,7.17c.62,1.83,1.12,3.45,1.5,5h.07c.37-1.5.9-3.12,1.56-5l2.64-7.17h2.44l.92,14.83h-1.87Z" transform="translate(-6.5 -14.77)"/><path class="cls-12" d="M247,361.12v3.63a9.16,9.16,0,0,1,1.74-.13c2.29,0,4.6.95,4.6,3.56a3,3,0,0,1-1.1,2.46,6.71,6.71,0,0,1-4.29,1.23,26.4,26.4,0,0,1-2.86-.15V361.12Zm0,9.31a10.8,10.8,0,0,0,1.34.09c1.47,0,3.08-.62,3.08-2.27s-1.54-2.24-3-2.24a8.81,8.81,0,0,0-1.43.11Zm9.59-9.31v10.65h-1.92V361.12Z" transform="translate(-6.5 -14.77)"/><path class="cls-12" d="M265.17,361.12l2.33,6.29c.24.7.51,1.54.68,2.18h0c.2-.64.42-1.45.68-2.22l2.11-6.25h2l-2.91,7.59c-1.39,3.65-2.33,5.52-3.65,6.67a5.24,5.24,0,0,1-2.38,1.25l-.48-1.63a5.12,5.12,0,0,0,1.69-.95A5.87,5.87,0,0,0,267,371.9a1.39,1.39,0,0,0,.15-.46,1.69,1.69,0,0,0-.13-.51l-3.94-9.81Z" transform="translate(-6.5 -14.77)"/><path class="cls-12" d="M276,361.12l3.52,4.64h.4v-4.64h1.85v4.64h.37l3.52-4.64h2.22l-4.2,4.84c1.61.18,2.55,1.12,3.19,2.82a25.85,25.85,0,0,0,1.17,3h-1.94a15.68,15.68,0,0,1-1-2.44,2.94,2.94,0,0,0-3-2.27h-.33v4.71h-1.85v-4.71h-.35c-1.5,0-2.4.55-3.06,2.29a18.78,18.78,0,0,1-1,2.42h-1.87a30.86,30.86,0,0,0,1.17-3c.66-1.72,1.61-2.66,3.21-2.84l-4.22-4.84Z" transform="translate(-6.5 -14.77)"/><path class="cls-12" d="M290.67,366.8a3.41,3.41,0,0,0,3.65,3.7,7,7,0,0,0,2.95-.55l.33,1.39a8.62,8.62,0,0,1-3.54.66c-3.28,0-5.24-2.16-5.24-5.37s1.89-5.74,5-5.74c3.48,0,4.4,3.06,4.4,5a7.21,7.21,0,0,1-.07.9Zm5.68-1.39c0-1.23-.51-3.15-2.68-3.15-2,0-2.82,1.8-3,3.15Z" transform="translate(-6.5 -14.77)"/><path class="cls-12" d="M64.36,387.52v10.65H62.43v-9.11h-5v9.11H55.56V387.52Z" transform="translate(-6.5 -14.77)"/><path class="cls-12" d="M67.51,391c0-1.36,0-2.46-.09-3.48h1.74l.09,1.83h0a4.19,4.19,0,0,1,3.78-2.07c2.57,0,4.51,2.18,4.51,5.41,0,3.83-2.33,5.72-4.84,5.72a3.73,3.73,0,0,1-3.28-1.67h0v5.79H67.51Zm1.91,2.84a4.36,4.36,0,0,0,.09.79,3,3,0,0,0,2.9,2.27c2,0,3.23-1.67,3.23-4.11,0-2.13-1.12-4-3.17-4a3.09,3.09,0,0,0-2.93,2.4,3.15,3.15,0,0,0-.13.79Z" transform="translate(-6.5 -14.77)"/><path class="cls-12" d="M81.81,387.52V392c0,1.69,0,2.75-.11,4.27l.07,0c.64-1.3,1-2,1.72-3.28l3.32-5.5h2.27v10.65H87.22v-4.51c0-1.74,0-2.64.13-4.36h-.07c-.68,1.36-1.14,2.22-1.76,3.3-1,1.65-2.18,3.7-3.32,5.57H80V387.52Z" transform="translate(-6.5 -14.77)"/><path class="cls-12" d="M99.8,397.77a7.12,7.12,0,0,1-3.06.62,5.06,5.06,0,0,1-5.3-5.43,5.41,5.41,0,0,1,5.72-5.65,6.46,6.46,0,0,1,2.68.55l-.44,1.5a4.49,4.49,0,0,0-2.24-.51c-2.44,0-3.76,1.8-3.76,4a3.65,3.65,0,0,0,3.7,4,5.5,5.5,0,0,0,2.38-.53Z" transform="translate(-6.5 -14.77)"/><path class="cls-12" d="M109.62,387.52v1.54h-3.32v9.11h-1.91v-9.11h-3.32v-1.54Z" transform="translate(-6.5 -14.77)"/><path class="cls-12" d="M112.48,387.52l2.33,6.29c.24.7.51,1.54.68,2.18h0c.2-.64.42-1.45.68-2.22l2.11-6.25h2l-2.9,7.59c-1.39,3.65-2.33,5.52-3.65,6.67a5.24,5.24,0,0,1-2.38,1.25l-.48-1.63a5.12,5.12,0,0,0,1.69-.95,5.87,5.87,0,0,0,1.63-2.16,1.39,1.39,0,0,0,.15-.46,1.69,1.69,0,0,0-.13-.51l-3.94-9.81Z" transform="translate(-6.5 -14.77)"/><path class="cls-12" d="M130.89,387.52v10.65H129v-9.11h-5v9.11h-1.91V387.52Z" transform="translate(-6.5 -14.77)"/><path class="cls-12" d="M135.82,387.52V392c0,1.69,0,2.75-.11,4.27l.07,0c.64-1.3,1-2,1.72-3.28l3.32-5.5h2.27v10.65h-1.85v-4.51c0-1.74,0-2.64.13-4.36h-.07c-.68,1.36-1.14,2.22-1.76,3.3-1,1.65-2.18,3.7-3.32,5.57H134V387.52Z" transform="translate(-6.5 -14.77)"/><path class="cls-12" d="M154.3,387.52v10.65h-1.91V389h-3.65v2.77c0,3-.29,5-1.67,5.9a3.11,3.11,0,0,1-2.11.66l-.2-1.52a2.38,2.38,0,0,0,1.06-.44c1-.73,1.1-2.22,1.1-4.6v-4.29Z" transform="translate(-6.5 -14.77)"/><path class="cls-12" d="M159.25,387.52V392c0,1.69,0,2.75-.11,4.27l.07,0c.64-1.3,1-2,1.72-3.28l3.32-5.5h2.27v10.65h-1.85v-4.51c0-1.74,0-2.64.13-4.36h-.07c-.68,1.36-1.14,2.22-1.76,3.3-1,1.65-2.18,3.7-3.32,5.57h-2.22V387.52Z" transform="translate(-6.5 -14.77)"/><path class="cls-12" d="M176.23,387.52v4.62h.46l4-4.62H183l-4.64,4.82c1.72.18,2.75,1.32,3.59,3.23a22.62,22.62,0,0,0,1.14,2.6h-2a14.21,14.21,0,0,1-1-2.18,3.46,3.46,0,0,0-3.52-2.51h-.37v4.69h-1.91V387.52Z" transform="translate(-6.5 -14.77)"/><path class="cls-12" d="M199.15,392.76c0,3.94-2.73,5.66-5.3,5.66-2.88,0-5.1-2.11-5.1-5.48,0-3.57,2.33-5.66,5.28-5.66S199.15,389.5,199.15,392.76Zm-8.45.11c0,2.33,1.34,4.09,3.24,4.09s3.23-1.74,3.23-4.14c0-1.8-.9-4.09-3.19-4.09S190.71,390.84,190.71,392.87Z" transform="translate(-6.5 -14.77)"/><path class="cls-12" d="M209.65,383.91a14.4,14.4,0,0,1-2.22.48,5.22,5.22,0,0,0-3.79,2,7.6,7.6,0,0,0-1.17,3.52h.07a4,4,0,0,1,3.7-2.4c2.62,0,4.53,1.87,4.53,5.26s-1.8,5.63-4.93,5.63c-3.74,0-5-3.59-5-7.13a9.46,9.46,0,0,1,1.65-5.9,6.39,6.39,0,0,1,4.58-2.51,15.53,15.53,0,0,0,2.64-.57Zm-3.81,5a2.59,2.59,0,0,0-2.4,1.45,4.67,4.67,0,0,0-.53,2.27c0,1.76.86,4.29,3,4.29s2.93-2.07,2.93-4C208.81,391.2,208.13,389,205.84,389Z" transform="translate(-6.5 -14.77)"/><path class="cls-12" d="M213.21,391c0-1.36,0-2.46-.09-3.48h1.74l.09,1.83h0a4.19,4.19,0,0,1,3.78-2.07c2.57,0,4.51,2.18,4.51,5.41,0,3.83-2.33,5.72-4.84,5.72a3.73,3.73,0,0,1-3.28-1.67h0v5.79h-1.91Zm1.91,2.84a4.36,4.36,0,0,0,.09.79,3,3,0,0,0,2.9,2.27c2,0,3.23-1.67,3.23-4.11,0-2.13-1.12-4-3.17-4a3.09,3.09,0,0,0-2.93,2.4,3.17,3.17,0,0,0-.13.79Z" transform="translate(-6.5 -14.77)"/><path class="cls-12" d="M231.63,398.17l-.15-1.34h-.07a4,4,0,0,1-3.26,1.58,3,3,0,0,1-3.26-3.06c0-2.57,2.29-4,6.4-4v-.22a2.2,2.2,0,0,0-2.42-2.46,5.3,5.3,0,0,0-2.77.79l-.44-1.28a6.61,6.61,0,0,1,3.5-.95c3.26,0,4,2.22,4,4.36v4a14.91,14.91,0,0,0,.18,2.55Zm-.29-5.43c-2.11,0-4.51.33-4.51,2.4a1.71,1.71,0,0,0,1.83,1.85,2.65,2.65,0,0,0,2.58-1.78,2,2,0,0,0,.11-.62Z" transform="translate(-6.5 -14.77)"/><path class="cls-12" d="M244.39,383.91a14.4,14.4,0,0,1-2.22.48,5.22,5.22,0,0,0-3.79,2,7.6,7.6,0,0,0-1.17,3.52h.07a4,4,0,0,1,3.7-2.4c2.62,0,4.53,1.87,4.53,5.26s-1.8,5.63-4.93,5.63c-3.74,0-5-3.59-5-7.13a9.46,9.46,0,0,1,1.65-5.9,6.39,6.39,0,0,1,4.58-2.51,15.53,15.53,0,0,0,2.64-.57Zm-3.81,5a2.59,2.59,0,0,0-2.4,1.45,4.67,4.67,0,0,0-.53,2.27c0,1.76.86,4.29,3,4.29s2.93-2.07,2.93-4C243.55,391.2,242.87,389,240.58,389Z" transform="translate(-6.5 -14.77)"/><path class="cls-12" d="M257.59,392.76c0,3.94-2.73,5.66-5.3,5.66-2.88,0-5.1-2.11-5.1-5.48,0-3.57,2.33-5.66,5.28-5.66S257.59,389.5,257.59,392.76Zm-8.45.11c0,2.33,1.34,4.09,3.24,4.09s3.23-1.74,3.23-4.14c0-1.8-.9-4.09-3.19-4.09S249.14,390.84,249.14,392.87Z" transform="translate(-6.5 -14.77)"/><path class="cls-12" d="M267,387.52v1.54h-3.32v9.11h-1.91v-9.11h-3.32v-1.54Z" transform="translate(-6.5 -14.77)"/><path class="cls-12" d="M270.65,387.52v4.62h.46l4-4.62h2.35l-4.64,4.82c1.72.18,2.75,1.32,3.59,3.23a22.47,22.47,0,0,0,1.14,2.6h-2a14.12,14.12,0,0,1-1-2.18,3.46,3.46,0,0,0-3.52-2.51h-.37v4.69h-1.91V387.52Z" transform="translate(-6.5 -14.77)"/><path class="cls-12" d="M280.22,393.2a3.41,3.41,0,0,0,3.65,3.7,7,7,0,0,0,2.95-.55l.33,1.39a8.61,8.61,0,0,1-3.54.66c-3.28,0-5.24-2.16-5.24-5.37s1.89-5.74,5-5.74c3.48,0,4.4,3.06,4.4,5a7.2,7.2,0,0,1-.07.9Zm5.68-1.39c0-1.23-.51-3.15-2.68-3.15-2,0-2.82,1.8-3,3.15Z" transform="translate(-6.5 -14.77)"/><path class="cls-12" d="M56.49,418.39h.92c1.63,0,2.73-.75,2.73-1.74s-.86-1.54-2.07-1.54a5.13,5.13,0,0,0-2.57.75L55,414.67a6.76,6.76,0,0,1,3.54-1c1.63,0,3.61.73,3.61,2.79a2.71,2.71,0,0,1-2.4,2.42v0c1.58.13,2.9,1.1,2.9,2.66,0,2.31-2.35,3.17-4.6,3.17a7.31,7.31,0,0,1-3.45-.86l.51-1.3a6.14,6.14,0,0,0,2.82.73c1.61,0,2.62-.77,2.62-1.83,0-1.43-1.5-1.83-3.1-1.83h-1Z" transform="translate(-6.5 -14.77)"/><path class="cls-12" d="M71,424.57l-.15-1.34h-.07a4,4,0,0,1-3.26,1.58,3,3,0,0,1-3.26-3.06c0-2.57,2.29-4,6.4-4v-.22a2.19,2.19,0,0,0-2.42-2.46,5.3,5.3,0,0,0-2.77.79L65,414.63a6.61,6.61,0,0,1,3.5-.95c3.26,0,4,2.22,4,4.36v4a15,15,0,0,0,.18,2.55Zm-.29-5.43c-2.11,0-4.51.33-4.51,2.4A1.71,1.71,0,0,0,68,423.38a2.65,2.65,0,0,0,2.57-1.78,2,2,0,0,0,.11-.62Z" transform="translate(-6.5 -14.77)"/><path class="cls-12" d="M83.61,424.57H81.7V420.1H80.27a2.51,2.51,0,0,0-1.78.59c-.79.64-1.08,2-1.5,3a6.59,6.59,0,0,1-.44.88H74.48a7,7,0,0,0,.66-1.21c.46-1,.73-2.42,1.67-3.21a2.54,2.54,0,0,1,1.21-.62v-.07a2.84,2.84,0,0,1-2.82-2.64,2.56,2.56,0,0,1,1.41-2.31,7.46,7.46,0,0,1,3.56-.73,29.6,29.6,0,0,1,3.43.22ZM81.7,415.2a10.75,10.75,0,0,0-1.61-.11c-1.32,0-2.88.37-2.88,1.85s1.69,1.85,2.84,1.85H81.7Z" transform="translate(-6.5 -14.77)"/><path class="cls-12" d="M86.71,414.05a22.72,22.72,0,0,1,3.39-.24c1.78,0,4.73.29,4.73,2.66a2.52,2.52,0,0,1-2.22,2.4v0c1.56.22,2.71,1.1,2.71,2.64,0,2.79-3.52,3.15-5.61,3.15-1.19,0-2.42-.09-3-.13Zm1.83,9.24a11.65,11.65,0,0,0,1.56.09c1.3,0,3.23-.31,3.23-1.85s-1.54-1.87-3.39-1.87H88.54Zm0-4.91H90c1.43,0,2.9-.42,2.9-1.67,0-1.06-.92-1.56-2.86-1.56a13.72,13.72,0,0,0-1.5.09Z" transform="translate(-6.5 -14.77)"/><path class="cls-12" d="M99.67,413.92v4.62h.46l4-4.62h2.35l-4.64,4.82c1.72.18,2.75,1.32,3.59,3.23a22.47,22.47,0,0,0,1.14,2.6h-2a14.12,14.12,0,0,1-1-2.18,3.46,3.46,0,0,0-3.52-2.51h-.37v4.69H97.76V413.92Z" transform="translate(-6.5 -14.77)"/><path class="cls-12" d="M110.08,413.92v4.49c0,1.69,0,2.75-.11,4.27l.07,0c.64-1.3,1-2,1.72-3.28l3.32-5.5h2.27v10.65h-1.85v-4.51c0-1.74,0-2.64.13-4.36h-.07c-.68,1.36-1.14,2.22-1.76,3.3-1,1.65-2.18,3.7-3.32,5.57h-2.22V413.92Z" transform="translate(-6.5 -14.77)"/><path class="cls-12" d="M119.23,427.28a31.68,31.68,0,0,0,1.32-5.26l2.16-.22a26.84,26.84,0,0,1-2.09,5.35Z" transform="translate(-6.5 -14.77)"/><path class="cls-12" d="M131.57,413.92v4.29h5.06v-4.29h1.91v10.65h-1.91v-4.82h-5.06v4.82h-1.91V413.92Z" transform="translate(-6.5 -14.77)"/><path class="cls-12" d="M151.35,419.16c0,3.94-2.73,5.66-5.3,5.66-2.88,0-5.1-2.11-5.1-5.48,0-3.57,2.33-5.66,5.28-5.66S151.35,415.9,151.35,419.16Zm-8.45.11c0,2.33,1.34,4.09,3.23,4.09s3.23-1.74,3.23-4.14c0-1.8-.9-4.09-3.19-4.09S142.9,417.24,142.9,419.27Z" transform="translate(-6.5 -14.77)"/><path class="cls-12" d="M160.37,413.92v4.62h.46l4-4.62h2.35l-4.64,4.82c1.72.18,2.75,1.32,3.59,3.23a22.47,22.47,0,0,0,1.14,2.6h-2a14.12,14.12,0,0,1-1-2.18,3.46,3.46,0,0,0-3.52-2.51h-.37v4.69h-1.91V413.92Z" transform="translate(-6.5 -14.77)"/><path class="cls-12" d="M181.25,424.17a7.13,7.13,0,0,1-3.06.62,5.06,5.06,0,0,1-5.3-5.43,5.41,5.41,0,0,1,5.72-5.65,6.46,6.46,0,0,1,2.68.55l-.44,1.5a4.49,4.49,0,0,0-2.24-.51c-2.44,0-3.76,1.8-3.76,4a3.65,3.65,0,0,0,3.7,4,5.5,5.5,0,0,0,2.38-.53Z" transform="translate(-6.5 -14.77)"/><path class="cls-12" d="M193,419.16c0,3.94-2.73,5.66-5.3,5.66-2.88,0-5.1-2.11-5.1-5.48,0-3.57,2.33-5.66,5.28-5.66S193,415.9,193,419.16Zm-8.45.11c0,2.33,1.34,4.09,3.24,4.09s3.23-1.74,3.23-4.14c0-1.8-.9-4.09-3.19-4.09S184.57,417.24,184.57,419.27Z" transform="translate(-6.5 -14.77)"/><path class="cls-12" d="M196.18,413.92l3.52,4.64h.4v-4.64h1.85v4.64h.37l3.52-4.64h2.22l-4.2,4.84c1.61.18,2.55,1.12,3.19,2.82a25.85,25.85,0,0,0,1.17,3h-1.94a15.68,15.68,0,0,1-1-2.44,3,3,0,0,0-3-2.27h-.33v4.71H200.1v-4.71h-.35c-1.5,0-2.4.55-3.06,2.29a18.8,18.8,0,0,1-1,2.42h-1.87a30.87,30.87,0,0,0,1.17-3c.66-1.72,1.61-2.66,3.21-2.84L194,413.92Z" transform="translate(-6.5 -14.77)"/><path class="cls-12" d="M216.07,424.57l-.15-1.34h-.07a4,4,0,0,1-3.26,1.58,3,3,0,0,1-3.26-3.06c0-2.57,2.29-4,6.4-4v-.22a2.2,2.2,0,0,0-2.42-2.46,5.3,5.3,0,0,0-2.77.79l-.44-1.28a6.61,6.61,0,0,1,3.5-.95c3.26,0,4,2.22,4,4.36v4a14.91,14.91,0,0,0,.18,2.55Zm-.29-5.43c-2.11,0-4.51.33-4.51,2.4a1.71,1.71,0,0,0,1.83,1.85,2.65,2.65,0,0,0,2.58-1.78,2,2,0,0,0,.11-.62Z" transform="translate(-6.5 -14.77)"/><path class="cls-12" d="M228.9,413.92v10.65H227v-9.13h-3.65v2.77c0,3-.29,5-1.67,5.9a3.11,3.11,0,0,1-2.11.66l-.2-1.52a2.39,2.39,0,0,0,1.06-.44c1-.73,1.1-2.22,1.1-4.6v-4.29Z" transform="translate(-6.5 -14.77)"/><path class="cls-12" d="M233.14,419.6a3.41,3.41,0,0,0,3.65,3.7,7,7,0,0,0,2.95-.55l.33,1.39a8.61,8.61,0,0,1-3.54.66c-3.28,0-5.24-2.16-5.24-5.37s1.89-5.74,5-5.74c3.48,0,4.4,3.06,4.4,5a7.2,7.2,0,0,1-.07.9Zm5.68-1.39c0-1.23-.51-3.15-2.68-3.15-2,0-2.82,1.8-3,3.15Z" transform="translate(-6.5 -14.77)"/><path class="cls-12" d="M245,413.92v4.29H250v-4.29h1.91v10.65H250v-4.82H245v4.82H243V413.92Z" transform="translate(-6.5 -14.77)"/><path class="cls-12" d="M256.88,413.92v4.49c0,1.69,0,2.75-.11,4.27l.07,0c.64-1.3,1-2,1.72-3.28l3.32-5.5h2.27v10.65h-1.85v-4.51c0-1.74,0-2.64.13-4.36h-.07c-.68,1.36-1.14,2.22-1.76,3.3-1,1.65-2.18,3.7-3.32,5.57h-2.22V413.92Z" transform="translate(-6.5 -14.77)"/><path class="cls-12" d="M269.13,413.92v4.49H271c.33-2.82,2.18-4.73,4.73-4.73,2.77,0,4.66,2.2,4.66,5.48,0,3.46-2.11,5.66-4.8,5.66s-4.42-1.89-4.64-4.93h-1.78v4.69h-1.89V413.92Zm9.29,5.28c0-2-.9-4.07-2.79-4.07s-2.86,2-2.86,4.18.95,4.07,2.82,4.07S278.42,421.23,278.42,419.2Z" transform="translate(-6.5 -14.77)"/><path class="cls-12" d="M281.54,427.28a31.63,31.63,0,0,0,1.32-5.26l2.16-.22a26.81,26.81,0,0,1-2.09,5.35Z" transform="translate(-6.5 -14.77)"/><path class="cls-12" d="M55.72,440.32h2.38L60,445.69c.26.79.73,2.09,1,2.93h0c.24-.79.84-2.49,1.25-3.65L64,440.32h2.4L67.16,451H65.31l-.24-5.08c-.07-1.14-.15-2.51-.2-3.81H64.8c-.29,1-.57,1.83-1.17,3.46l-2,5.37H60.18l-1.89-5.26c-.33-1-.79-2.55-1.06-3.54h-.09c0,1.25-.11,2.66-.18,3.83l-.26,5H54.92Z" transform="translate(-6.5 -14.77)"/><path class="cls-12" d="M71.53,440.32v4.29h5.06v-4.29h1.91V451H76.59v-4.82H71.53V451H69.62V440.32Z" transform="translate(-6.5 -14.77)"/><path class="cls-12" d="M82.75,446a3.41,3.41,0,0,0,3.65,3.7,7,7,0,0,0,2.95-.55l.33,1.39a8.62,8.62,0,0,1-3.54.66c-3.28,0-5.24-2.16-5.24-5.37s1.89-5.74,5-5.74c3.48,0,4.4,3.06,4.4,5a7.31,7.31,0,0,1-.07.9Zm5.68-1.39c0-1.23-.51-3.15-2.68-3.15-2,0-2.82,1.8-3,3.15Z" transform="translate(-6.5 -14.77)"/><path class="cls-12" d="M99.23,440.32v4.29h5.06v-4.29h1.91V451h-1.91v-4.82H99.23V451H97.32V440.32Z" transform="translate(-6.5 -14.77)"/><path class="cls-12" d="M110.45,446a3.41,3.41,0,0,0,3.65,3.7,7,7,0,0,0,2.95-.55l.33,1.39a8.62,8.62,0,0,1-3.54.66c-3.28,0-5.24-2.16-5.24-5.37s1.89-5.74,5-5.74c3.48,0,4.4,3.06,4.4,5a7.31,7.31,0,0,1-.07.9Zm5.68-1.39c0-1.23-.51-3.15-2.68-3.15-2,0-2.82,1.8-3,3.15Z" transform="translate(-6.5 -14.77)"/><path class="cls-12" d="M125.76,440.32l2.33,6.29c.24.7.51,1.54.68,2.18h0c.2-.64.42-1.45.68-2.22l2.11-6.25h2l-2.9,7.59c-1.39,3.65-2.33,5.52-3.65,6.67a5.24,5.24,0,0,1-2.38,1.25l-.48-1.63a5.12,5.12,0,0,0,1.69-.95,5.87,5.87,0,0,0,1.63-2.16,1.39,1.39,0,0,0,.15-.46,1.69,1.69,0,0,0-.13-.51l-3.94-9.81Z" transform="translate(-6.5 -14.77)"/><path class="cls-12" d="M143.23,440.32v9.2l1.1,0-.11,4.82H142.7l-.09-3.39h-7.37l-.09,3.39h-1.52l-.09-4.82.9,0a8.32,8.32,0,0,0,1.06-2.18,14.06,14.06,0,0,0,.62-4.25v-2.77Zm-5.39,3.23a14.12,14.12,0,0,1-.55,4,10.15,10.15,0,0,1-.86,2h4.91v-7.7h-3.5Z" transform="translate(-6.5 -14.77)"/><path class="cls-12" d="M152.54,451l-.15-1.34h-.07a4,4,0,0,1-3.26,1.58,3,3,0,0,1-3.26-3.06c0-2.57,2.29-4,6.4-4V444a2.19,2.19,0,0,0-2.42-2.46,5.3,5.3,0,0,0-2.77.79l-.44-1.28a6.61,6.61,0,0,1,3.5-.95c3.26,0,4,2.22,4,4.36v4a15,15,0,0,0,.18,2.55Zm-.29-5.43c-2.11,0-4.51.33-4.51,2.4a1.71,1.71,0,0,0,1.83,1.85,2.65,2.65,0,0,0,2.57-1.78,2,2,0,0,0,.11-.62Z" transform="translate(-6.5 -14.77)"/><path class="cls-12" d="M165.36,440.32V451h-1.91v-9.13H159.8v2.77c0,3-.29,5-1.67,5.9a3.11,3.11,0,0,1-2.11.66l-.2-1.52a2.39,2.39,0,0,0,1.06-.44c1-.73,1.1-2.22,1.1-4.6v-4.29Z" transform="translate(-6.5 -14.77)"/><path class="cls-12" d="M178.17,445.56c0,3.94-2.73,5.66-5.3,5.66-2.88,0-5.1-2.11-5.1-5.48,0-3.56,2.33-5.66,5.28-5.66S178.17,442.3,178.17,445.56Zm-8.45.11c0,2.33,1.34,4.09,3.23,4.09s3.23-1.74,3.23-4.14c0-1.8-.9-4.09-3.19-4.09S169.72,443.64,169.72,445.67Z" transform="translate(-6.5 -14.77)"/><path class="cls-12" d="M188.2,450.57a7.13,7.13,0,0,1-3.06.62,5.06,5.06,0,0,1-5.3-5.43,5.41,5.41,0,0,1,5.72-5.65,6.47,6.47,0,0,1,2.68.55l-.44,1.5a4.49,4.49,0,0,0-2.24-.51c-2.44,0-3.76,1.8-3.76,4a3.65,3.65,0,0,0,3.7,4,5.5,5.5,0,0,0,2.38-.53Z" transform="translate(-6.5 -14.77)"/><path class="cls-12" d="M192.33,440.32v3.61a10.79,10.79,0,0,1,1.76-.11c2.4,0,4.93.75,4.93,3.59a3,3,0,0,1-1.12,2.44,7.39,7.39,0,0,1-4.62,1.23,26.39,26.39,0,0,1-2.86-.15V440.32Zm0,9.31a11.19,11.19,0,0,0,1.43.09c1.45,0,3.32-.48,3.32-2.27s-1.94-2.24-3.37-2.24a9.16,9.16,0,0,0-1.39.11Z" transform="translate(-6.5 -14.77)"/><path class="cls-12" d="M214.34,440.32v9.2l1.1,0-.11,4.82h-1.52l-.09-3.39h-7.37l-.09,3.39h-1.52l-.09-4.82.9,0a8.32,8.32,0,0,0,1.06-2.18,14.06,14.06,0,0,0,.62-4.25v-2.77Zm-5.39,3.23a14.14,14.14,0,0,1-.55,4,10.18,10.18,0,0,1-.86,2h4.91v-7.7h-3.5Z" transform="translate(-6.5 -14.77)"/><path class="cls-12" d="M227.29,445.56c0,3.94-2.73,5.66-5.3,5.66-2.88,0-5.1-2.11-5.1-5.48,0-3.56,2.33-5.66,5.28-5.66S227.29,442.3,227.29,445.56Zm-8.45.11c0,2.33,1.34,4.09,3.24,4.09s3.23-1.74,3.23-4.14c0-1.8-.9-4.09-3.19-4.09S218.84,443.64,218.84,445.67Z" transform="translate(-6.5 -14.77)"/><path class="cls-12" d="M234.46,436.34A18.49,18.49,0,0,1,238,436a6.13,6.13,0,0,1,4.07,1.08,3.11,3.11,0,0,1,1.23,2.62,3.52,3.52,0,0,1-2.51,3.26v0a3.82,3.82,0,0,1,3.06,3.72,4,4,0,0,1-1.25,3c-1,.95-2.71,1.39-5.13,1.39a22.42,22.42,0,0,1-3-.18Zm1.92,6.07h1.74c2,0,3.21-1.06,3.21-2.49,0-1.74-1.32-2.42-3.26-2.42a8.18,8.18,0,0,0-1.69.13Zm0,7.11a10.18,10.18,0,0,0,1.61.09c2,0,3.81-.73,3.81-2.88s-1.74-2.86-3.83-2.86h-1.58Z" transform="translate(-6.5 -14.77)"/><path class="cls-12" d="M252.22,451l-.15-1.34H252a4,4,0,0,1-3.26,1.58,3,3,0,0,1-3.26-3.06c0-2.57,2.29-4,6.4-4V444a2.2,2.2,0,0,0-2.42-2.46,5.3,5.3,0,0,0-2.77.79l-.44-1.28a6.61,6.61,0,0,1,3.5-.95c3.26,0,4,2.22,4,4.36v4A14.91,14.91,0,0,0,254,451Zm-.29-5.43c-2.11,0-4.51.33-4.51,2.4a1.71,1.71,0,0,0,1.83,1.85,2.65,2.65,0,0,0,2.58-1.78,2,2,0,0,0,.11-.62Z" transform="translate(-6.5 -14.77)"/><path class="cls-12" d="M264.52,450.57a7.12,7.12,0,0,1-3.06.62,5.06,5.06,0,0,1-5.3-5.43,5.41,5.41,0,0,1,5.72-5.65,6.46,6.46,0,0,1,2.68.55l-.44,1.5a4.49,4.49,0,0,0-2.24-.51c-2.44,0-3.76,1.8-3.76,4a3.65,3.65,0,0,0,3.7,4,5.5,5.5,0,0,0,2.38-.53Z" transform="translate(-6.5 -14.77)"/><path class="cls-12" d="M279.7,440.32v9.2l1.1,0-.11,4.82h-1.52l-.09-3.39h-7.37l-.09,3.39H270.1l-.09-4.82.9,0a8.32,8.32,0,0,0,1.06-2.18,14.06,14.06,0,0,0,.62-4.25v-2.77Zm-5.39,3.23a14.14,14.14,0,0,1-.55,4,10.18,10.18,0,0,1-.86,2h4.91v-7.7h-3.5Z" transform="translate(-6.5 -14.77)"/><path class="cls-12" d="M292.66,445.56c0,3.94-2.73,5.66-5.3,5.66-2.88,0-5.1-2.11-5.1-5.48,0-3.56,2.33-5.66,5.28-5.66S292.66,442.3,292.66,445.56Zm-8.45.11c0,2.33,1.34,4.09,3.24,4.09s3.23-1.74,3.23-4.14c0-1.8-.9-4.09-3.19-4.09S284.21,443.64,284.21,445.67Z" transform="translate(-6.5 -14.77)"/><path class="cls-12" d="M299.59,444.3v1.43h-5.43V444.3Z" transform="translate(-6.5 -14.77)"/><path class="cls-12" d="M56.49,471.19h.92c1.63,0,2.73-.75,2.73-1.74s-.86-1.54-2.07-1.54a5.13,5.13,0,0,0-2.57.75L55,467.47a6.76,6.76,0,0,1,3.54-1c1.63,0,3.61.73,3.61,2.79a2.71,2.71,0,0,1-2.4,2.42v0c1.58.13,2.9,1.1,2.9,2.66,0,2.31-2.35,3.17-4.6,3.17a7.31,7.31,0,0,1-3.45-.86l.51-1.3a6.14,6.14,0,0,0,2.82.73c1.61,0,2.62-.77,2.62-1.83,0-1.43-1.5-1.83-3.1-1.83h-1Z" transform="translate(-6.5 -14.77)"/><path class="cls-12" d="M65,466.85a22.72,22.72,0,0,1,3.39-.24c1.78,0,4.73.29,4.73,2.66a2.52,2.52,0,0,1-2.22,2.4v0c1.56.22,2.71,1.1,2.71,2.64,0,2.79-3.52,3.15-5.61,3.15-1.19,0-2.42-.09-3-.13Zm1.83,9.24a11.65,11.65,0,0,0,1.56.09c1.3,0,3.23-.31,3.23-1.85s-1.54-1.87-3.39-1.87H66.87Zm0-4.91h1.45c1.43,0,2.9-.42,2.9-1.67,0-1.06-.92-1.56-2.86-1.56a13.72,13.72,0,0,0-1.5.09Z" transform="translate(-6.5 -14.77)"/><path class="cls-12" d="M85.73,472c0,3.94-2.73,5.66-5.3,5.66-2.88,0-5.1-2.11-5.1-5.48,0-3.56,2.33-5.66,5.28-5.66S85.73,468.7,85.73,472Zm-8.45.11c0,2.33,1.34,4.09,3.23,4.09s3.23-1.74,3.23-4.14c0-1.8-.9-4.09-3.19-4.09S77.28,470,77.28,472.07Z" transform="translate(-6.5 -14.77)"/><path class="cls-12" d="M90,466.72V471H95.1v-4.29H97v10.65H95.1v-4.82H90v4.82H88.12V466.72Z" transform="translate(-6.5 -14.77)"/><path class="cls-12" d="M102,466.72v4.49c0,1.69,0,2.75-.11,4.27l.07,0c.64-1.3,1-2,1.72-3.28l3.32-5.5h2.27v10.65h-1.85v-4.51c0-1.74,0-2.64.13-4.36h-.07c-.68,1.36-1.14,2.22-1.76,3.3-1,1.65-2.18,3.7-3.32,5.57h-2.22V466.72Z" transform="translate(-6.5 -14.77)"/><path class="cls-12" d="M119.49,466.72v1.54h-3.32v9.11h-1.91v-9.11h-3.32v-1.54Z" transform="translate(-6.5 -14.77)"/><path class="cls-12" d="M123.06,466.72v3.61a10.79,10.79,0,0,1,1.76-.11c2.4,0,4.93.75,4.93,3.59a3,3,0,0,1-1.12,2.44,7.4,7.4,0,0,1-4.62,1.23,26.4,26.4,0,0,1-2.86-.15V466.72Zm0,9.31a11.19,11.19,0,0,0,1.43.09c1.45,0,3.32-.48,3.32-2.27s-1.94-2.24-3.37-2.24a9.15,9.15,0,0,0-1.39.11Z" transform="translate(-6.5 -14.77)"/><path class="cls-12" d="M139.73,477a7.12,7.12,0,0,1-3.06.62,5.06,5.06,0,0,1-5.3-5.43,5.41,5.41,0,0,1,5.72-5.65,6.46,6.46,0,0,1,2.68.55l-.44,1.5a4.49,4.49,0,0,0-2.24-.51c-2.44,0-3.76,1.8-3.76,4a3.65,3.65,0,0,0,3.7,4,5.5,5.5,0,0,0,2.38-.53Z" transform="translate(-6.5 -14.77)"/><path class="cls-12" d="M150,477.37H148V472.9h-1.43a2.52,2.52,0,0,0-1.78.59c-.79.64-1.08,2-1.5,3a6.59,6.59,0,0,1-.44.88h-2.07a7,7,0,0,0,.66-1.21c.46-1,.73-2.42,1.67-3.21a2.54,2.54,0,0,1,1.21-.62v-.07a2.84,2.84,0,0,1-2.82-2.64,2.56,2.56,0,0,1,1.41-2.31,7.46,7.46,0,0,1,3.56-.73,29.6,29.6,0,0,1,3.43.22ZM148,468a10.75,10.75,0,0,0-1.61-.11c-1.32,0-2.88.37-2.88,1.85s1.69,1.85,2.84,1.85H148Z" transform="translate(-6.5 -14.77)"/><path class="cls-12" d="M151.85,480.08a31.68,31.68,0,0,0,1.32-5.26l2.16-.22a26.84,26.84,0,0,1-2.09,5.35Z" transform="translate(-6.5 -14.77)"/><path class="cls-12" d="M164.09,466.72v3.5c0,1.34.51,2.27,2.2,2.27a4,4,0,0,0,2.29-.75v-5h1.91v10.65h-1.91V473.1h0a5.59,5.59,0,0,1-2.88.81,3.16,3.16,0,0,1-3.5-3.48v-3.72Z" transform="translate(-6.5 -14.77)"/><path class="cls-12" d="M180.79,466.72v1.54h-3.32v9.11h-1.91v-9.11h-3.32v-1.54Z" transform="translate(-6.5 -14.77)"/><path class="cls-12" d="M191.83,472c0,3.94-2.73,5.66-5.3,5.66-2.88,0-5.11-2.11-5.11-5.48,0-3.56,2.33-5.66,5.28-5.66S191.83,468.7,191.83,472Zm-8.45.11c0,2.33,1.34,4.09,3.23,4.09s3.23-1.74,3.23-4.14c0-1.8-.9-4.09-3.19-4.09S183.38,470,183.38,472.07Z" transform="translate(-6.5 -14.77)"/><path class="cls-12" d="M202.32,463.11a14.4,14.4,0,0,1-2.22.48,5.22,5.22,0,0,0-3.79,2,7.6,7.6,0,0,0-1.17,3.52h.07a4,4,0,0,1,3.7-2.4c2.62,0,4.53,1.87,4.53,5.26s-1.8,5.63-4.93,5.63c-3.74,0-5-3.59-5-7.13a9.46,9.46,0,0,1,1.65-5.9,6.39,6.39,0,0,1,4.58-2.51,15.53,15.53,0,0,0,2.64-.57Zm-3.81,5a2.59,2.59,0,0,0-2.4,1.45,4.67,4.67,0,0,0-.53,2.27c0,1.76.86,4.29,3,4.29s2.93-2.07,2.93-4C201.49,470.4,200.81,468.15,198.52,468.15Z" transform="translate(-6.5 -14.77)"/><path class="cls-12" d="M207.76,466.72v3.63a9.07,9.07,0,0,1,1.74-.13c2.29,0,4.6.95,4.6,3.56a3,3,0,0,1-1.1,2.46,6.71,6.71,0,0,1-4.29,1.23,26.39,26.39,0,0,1-2.86-.15V466.72Zm0,9.31a10.8,10.8,0,0,0,1.34.09c1.47,0,3.08-.62,3.08-2.27s-1.54-2.24-3-2.24a8.86,8.86,0,0,0-1.43.11Zm9.59-9.31v10.65h-1.92V466.72Z" transform="translate(-6.5 -14.77)"/><path class="cls-12" d="M225.88,466.72l2.33,6.29c.24.7.51,1.54.68,2.18h0c.2-.64.42-1.45.68-2.22l2.11-6.25h2l-2.9,7.59c-1.39,3.65-2.33,5.52-3.65,6.67a5.25,5.25,0,0,1-2.38,1.25l-.48-1.63a5.12,5.12,0,0,0,1.69-.95,5.86,5.86,0,0,0,1.63-2.16,1.39,1.39,0,0,0,.15-.46,1.69,1.69,0,0,0-.13-.51l-3.94-9.81Z" transform="translate(-6.5 -14.77)"/><path class="cls-12" d="M243.22,466.72v1.54H239.9v9.11H238v-9.11h-3.32v-1.54Z" transform="translate(-6.5 -14.77)"/><path class="cls-12" d="M254.27,472c0,3.94-2.73,5.66-5.3,5.66-2.88,0-5.1-2.11-5.1-5.48,0-3.56,2.33-5.66,5.28-5.66S254.27,468.7,254.27,472Zm-8.45.11c0,2.33,1.34,4.09,3.24,4.09s3.23-1.74,3.23-4.14c0-1.8-.9-4.09-3.19-4.09S245.82,470,245.82,472.07Z" transform="translate(-6.5 -14.77)"/><path class="cls-12" d="M258.25,466.72v3.5c0,1.34.51,2.27,2.2,2.27a4,4,0,0,0,2.29-.75v-5h1.91v10.65h-1.91V473.1h0a5.6,5.6,0,0,1-2.88.81,3.16,3.16,0,0,1-3.5-3.48v-3.72Z" transform="translate(-6.5 -14.77)"/><path class="cls-12" d="M269.69,466.72V471h5.06v-4.29h1.91v10.65h-1.91v-4.82h-5.06v4.82h-1.91V466.72Z" transform="translate(-6.5 -14.77)"/><path class="cls-12" d="M281.61,466.72v4.49c0,1.69,0,2.75-.11,4.27l.07,0c.64-1.3,1-2,1.72-3.28l3.32-5.5h2.27v10.65H287v-4.51c0-1.74,0-2.64.13-4.36h-.07c-.68,1.36-1.14,2.22-1.76,3.3-1,1.65-2.18,3.7-3.32,5.57h-2.22V466.72Z" transform="translate(-6.5 -14.77)"/><path class="cls-12" d="M299.14,466.72v1.54h-3.32v9.11h-1.91v-9.11h-3.32v-1.54Z" transform="translate(-6.5 -14.77)"/><path class="cls-12" d="M302.71,466.72v3.61a10.79,10.79,0,0,1,1.76-.11c2.4,0,4.93.75,4.93,3.59a3,3,0,0,1-1.12,2.44,7.39,7.39,0,0,1-4.62,1.23,26.39,26.39,0,0,1-2.86-.15V466.72Zm0,9.31a11.19,11.19,0,0,0,1.43.09c1.45,0,3.32-.48,3.32-2.27s-1.94-2.24-3.37-2.24a9.16,9.16,0,0,0-1.39.11Z" transform="translate(-6.5 -14.77)"/><path class="cls-12" d="M63.86,493.12v9.2l1.1,0-.11,4.82H63.33l-.09-3.39H55.87l-.09,3.39H54.26l-.09-4.82.9,0a8.32,8.32,0,0,0,1.06-2.18,14.06,14.06,0,0,0,.62-4.25v-2.77Zm-5.39,3.23a14.12,14.12,0,0,1-.55,4,10.15,10.15,0,0,1-.86,2H62v-7.7h-3.5Z" transform="translate(-6.5 -14.77)"/><path class="cls-12" d="M68.26,498.8a3.41,3.41,0,0,0,3.65,3.7,7,7,0,0,0,2.95-.55l.33,1.39a8.62,8.62,0,0,1-3.54.66c-3.28,0-5.24-2.16-5.24-5.37s1.89-5.74,5-5.74c3.48,0,4.4,3.06,4.4,5a7.31,7.31,0,0,1-.07.9Zm5.68-1.39c0-1.23-.51-3.15-2.68-3.15-2,0-2.82,1.8-3,3.15Z" transform="translate(-6.5 -14.77)"/><path class="cls-12" d="M85.31,493.12v1.54H82v9.11H80.07v-9.11H76.75v-1.54Z" transform="translate(-6.5 -14.77)"/><path class="cls-12" d="M92.74,503.77l-.15-1.34h-.07A4,4,0,0,1,89.27,504,3,3,0,0,1,86,501c0-2.57,2.29-4,6.4-4v-.22A2.19,2.19,0,0,0,90,494.31a5.3,5.3,0,0,0-2.77.79l-.44-1.28a6.61,6.61,0,0,1,3.5-.95c3.26,0,4,2.22,4,4.36v4a15,15,0,0,0,.18,2.55Zm-.29-5.43c-2.11,0-4.51.33-4.51,2.4a1.71,1.71,0,0,0,1.83,1.85,2.65,2.65,0,0,0,2.57-1.78,2,2,0,0,0,.11-.62Z" transform="translate(-6.5 -14.77)"/><path class="cls-12" d="M105.57,493.12v10.65h-1.91v-9.13H100v2.77c0,3-.29,5-1.67,5.9a3.11,3.11,0,0,1-2.11.66l-.2-1.52a2.38,2.38,0,0,0,1.06-.44c1-.73,1.1-2.22,1.1-4.6v-4.29Z" transform="translate(-6.5 -14.77)"/><path class="cls-12" d="M110.52,493.12v4.49c0,1.69,0,2.75-.11,4.27l.07,0c.64-1.3,1-2,1.72-3.28l3.32-5.5h2.27v10.65h-1.85v-4.51c0-1.74,0-2.64.13-4.36H116c-.68,1.36-1.14,2.22-1.76,3.3-1,1.65-2.18,3.7-3.32,5.57h-2.22V493.12Z" transform="translate(-6.5 -14.77)"/><path class="cls-12" d="M133.18,503.37a7.12,7.12,0,0,1-3.06.62,5.06,5.06,0,0,1-5.3-5.43,5.41,5.41,0,0,1,5.72-5.65,6.46,6.46,0,0,1,2.68.55l-.44,1.5a4.49,4.49,0,0,0-2.24-.51c-2.44,0-3.76,1.8-3.76,4a3.65,3.65,0,0,0,3.7,4,5.5,5.5,0,0,0,2.38-.53Z" transform="translate(-6.5 -14.77)"/><path class="cls-12" d="M144.11,493.12v9.2l1.1,0-.11,4.82h-1.52l-.09-3.39h-7.37l-.09,3.39h-1.52l-.09-4.82.9,0a8.32,8.32,0,0,0,1.06-2.18,14.06,14.06,0,0,0,.62-4.25v-2.77Zm-5.39,3.23a14.12,14.12,0,0,1-.55,4,10.15,10.15,0,0,1-.86,2h4.91v-7.7h-3.5Z" transform="translate(-6.5 -14.77)"/><path class="cls-12" d="M148.51,498.8a3.41,3.41,0,0,0,3.65,3.7,7,7,0,0,0,2.95-.55l.33,1.39a8.62,8.62,0,0,1-3.54.66c-3.28,0-5.24-2.16-5.24-5.37s1.89-5.74,5-5.74c3.48,0,4.4,3.06,4.4,5a7.31,7.31,0,0,1-.07.9Zm5.68-1.39c0-1.23-.51-3.15-2.68-3.15-2,0-2.82,1.8-3,3.15Z" transform="translate(-6.5 -14.77)"/><path class="cls-12" d="M166.55,493.12v10.65h-1.91v-9.13H161v2.77c0,3-.29,5-1.67,5.9a3.11,3.11,0,0,1-2.11.66l-.2-1.52a2.38,2.38,0,0,0,1.06-.44c1-.73,1.1-2.22,1.1-4.6v-4.29Z" transform="translate(-6.5 -14.77)"/><path class="cls-12" d="M171.63,493.12v4.62h.46l4-4.62h2.35l-4.64,4.82c1.72.18,2.75,1.32,3.59,3.23a22.47,22.47,0,0,0,1.14,2.6h-2a14.12,14.12,0,0,1-1-2.18,3.46,3.46,0,0,0-3.52-2.51h-.37v4.69h-1.91V493.12Z" transform="translate(-6.5 -14.77)"/><path class="cls-12" d="M182,493.12v4.49c0,1.69,0,2.75-.11,4.27l.07,0c.64-1.3,1-2,1.72-3.28l3.32-5.5h2.27v10.65h-1.85v-4.51c0-1.74,0-2.64.13-4.36h-.07c-.68,1.36-1.14,2.22-1.76,3.3-1,1.65-2.18,3.7-3.32,5.57h-2.22V493.12Z" transform="translate(-6.5 -14.77)"/><path class="cls-12" d="M192,502.63a1.3,1.3,0,0,1,1.32-1.39,1.39,1.39,0,1,1-1.32,1.39Z" transform="translate(-6.5 -14.77)"/><path class="cls-12" d="M55.67,515.54a18.48,18.48,0,0,1,3.5-.31,6.13,6.13,0,0,1,4.07,1.08,3.11,3.11,0,0,1,1.23,2.62A3.52,3.52,0,0,1,62,522.18v0A3.82,3.82,0,0,1,65,525.95a4,4,0,0,1-1.25,3c-1,.95-2.71,1.39-5.13,1.39a22.41,22.41,0,0,1-3-.18Zm1.91,6.07h1.74c2,0,3.21-1.06,3.21-2.49,0-1.74-1.32-2.42-3.26-2.42a8.19,8.19,0,0,0-1.69.13Zm0,7.11a10.19,10.19,0,0,0,1.61.09c2,0,3.81-.73,3.81-2.88s-1.74-2.86-3.83-2.86H57.59Z" transform="translate(-6.5 -14.77)"/><path class="cls-12" d="M68.67,525.2a3.41,3.41,0,0,0,3.65,3.7,7,7,0,0,0,2.95-.55l.33,1.39a8.62,8.62,0,0,1-3.54.66c-3.28,0-5.24-2.16-5.24-5.37s1.89-5.74,5-5.74c3.48,0,4.4,3.06,4.4,5a7.31,7.31,0,0,1-.07.9Zm5.68-1.39c0-1.23-.51-3.15-2.68-3.15-2,0-2.82,1.8-3,3.15Z" transform="translate(-6.5 -14.77)"/><path class="cls-12" d="M86.93,519.52v9.2l1.1,0-.11,4.82H86.41l-.09-3.39H78.95l-.09,3.39H77.34l-.09-4.82.9,0a8.32,8.32,0,0,0,1.06-2.18,14.06,14.06,0,0,0,.62-4.25v-2.77Zm-5.39,3.23a14.12,14.12,0,0,1-.55,4,10.15,10.15,0,0,1-.86,2H85V521h-3.5Z" transform="translate(-6.5 -14.77)"/><path class="cls-12" d="M91,519.52l2.33,6.29c.24.7.51,1.54.68,2.18h0c.2-.64.42-1.45.68-2.22l2.11-6.25h2L96,527.11c-1.39,3.65-2.33,5.52-3.65,6.67A5.24,5.24,0,0,1,89.95,535l-.48-1.63a5.12,5.12,0,0,0,1.69-.95,5.87,5.87,0,0,0,1.63-2.16,1.39,1.39,0,0,0,.15-.46,1.69,1.69,0,0,0-.13-.51l-3.94-9.81Z" transform="translate(-6.5 -14.77)"/><path class="cls-12" d="M102.49,519.52v9.13h3.72v-9.13h1.89v9.13h3.72v-9.13h1.91v9.2l1.08,0-.11,4.82h-1.5l-.09-3.39H100.6V519.52Z" transform="translate(-6.5 -14.77)"/><path class="cls-12" d="M118.9,519.52V524c0,1.69,0,2.75-.11,4.27l.07,0c.64-1.3,1-2,1.72-3.28l3.32-5.5h2.27v10.65h-1.85v-4.51c0-1.74,0-2.64.13-4.36h-.07c-.68,1.36-1.14,2.22-1.76,3.3-1,1.65-2.18,3.7-3.32,5.57h-2.22V519.52Z" transform="translate(-6.5 -14.77)"/><path class="cls-12" d="M131.09,519.52V524c0,1.69,0,2.75-.11,4.27l.07,0c.64-1.3,1-2,1.72-3.28l3.32-5.5h2.27v10.65H136.5v-4.51c0-1.74,0-2.64.13-4.36h-.07c-.68,1.36-1.14,2.22-1.76,3.3-1,1.65-2.18,3.7-3.32,5.57h-2.22V519.52Zm1.25-4.33c.07.95.53,1.67,1.41,1.67s1.39-.7,1.5-1.67h1.39a2.66,2.66,0,0,1-2.93,2.73,2.56,2.56,0,0,1-2.77-2.73Z" transform="translate(-6.5 -14.77)"/><path class="cls-12" d="M153.75,529.77a7.12,7.12,0,0,1-3.06.62,5.06,5.06,0,0,1-5.3-5.43,5.41,5.41,0,0,1,5.72-5.65,6.46,6.46,0,0,1,2.68.55l-.44,1.5a4.49,4.49,0,0,0-2.24-.51c-2.44,0-3.76,1.8-3.76,4a3.65,3.65,0,0,0,3.7,4,5.5,5.5,0,0,0,2.38-.53Z" transform="translate(-6.5 -14.77)"/><path class="cls-12" d="M164.77,519.52v10.65h-1.94v-9.11h-5v9.11H156V519.52Z" transform="translate(-6.5 -14.77)"/><path class="cls-12" d="M169,525.2a3.41,3.41,0,0,0,3.65,3.7,7,7,0,0,0,2.95-.55l.33,1.39a8.62,8.62,0,0,1-3.54.66c-3.28,0-5.24-2.16-5.24-5.37s1.89-5.74,5-5.74c3.48,0,4.4,3.06,4.4,5a7.31,7.31,0,0,1-.07.9Zm5.68-1.39c0-1.23-.51-3.15-2.68-3.15-2,0-2.82,1.8-3,3.15Z" transform="translate(-6.5 -14.77)"/><path class="cls-12" d="M180.81,519.52v9.13h4.91v-9.13h1.92v9.2l1.1,0-.11,4.82h-1.5l-.09-3.39h-8.14V519.52Z" transform="translate(-6.5 -14.77)"/><path class="cls-12" d="M192.82,519.52V524c0,1.69,0,2.75-.11,4.27l.07,0c.64-1.3,1-2,1.72-3.28l3.32-5.5h2.27v10.65h-1.85v-4.51c0-1.74,0-2.64.13-4.36h-.07c-.68,1.36-1.14,2.22-1.76,3.3-1,1.65-2.18,3.7-3.32,5.57H191V519.52Z" transform="translate(-6.5 -14.77)"/><path class="cls-12" d="M209.12,530.17l-.15-1.34h-.07a4,4,0,0,1-3.26,1.58,3,3,0,0,1-3.26-3.06c0-2.57,2.29-4,6.4-4v-.22a2.2,2.2,0,0,0-2.42-2.46,5.3,5.3,0,0,0-2.77.79l-.44-1.28a6.61,6.61,0,0,1,3.5-.95c3.26,0,4,2.22,4,4.36v4a14.91,14.91,0,0,0,.18,2.55Zm-.29-5.43c-2.11,0-4.51.33-4.51,2.4a1.71,1.71,0,0,0,1.83,1.85,2.65,2.65,0,0,0,2.58-1.78,2,2,0,0,0,.11-.62Z" transform="translate(-6.5 -14.77)"/><path class="cls-12" d="M221.95,519.52v10.65H220V521h-3.65v2.77c0,3-.29,5-1.67,5.9a3.11,3.11,0,0,1-2.11.66l-.2-1.52a2.39,2.39,0,0,0,1.06-.44c1-.73,1.1-2.22,1.1-4.6v-4.29Z" transform="translate(-6.5 -14.77)"/><path class="cls-12" d="M226.89,519.52V524c0,1.69,0,2.75-.11,4.27l.07,0c.64-1.3,1-2,1.72-3.28l3.32-5.5h2.27v10.65h-1.85v-4.51c0-1.74,0-2.64.13-4.36h-.07c-.68,1.36-1.14,2.22-1.76,3.3-1,1.65-2.18,3.7-3.32,5.57h-2.22V519.52Z" transform="translate(-6.5 -14.77)"/><path class="cls-12" d="M244.89,529.77a7.12,7.12,0,0,1-3.06.62,5.06,5.06,0,0,1-5.3-5.43,5.41,5.41,0,0,1,5.72-5.65,6.46,6.46,0,0,1,2.68.55l-.44,1.5a4.49,4.49,0,0,0-2.24-.51c-2.44,0-3.76,1.8-3.76,4a3.65,3.65,0,0,0,3.7,4,5.5,5.5,0,0,0,2.38-.53Z" transform="translate(-6.5 -14.77)"/><path class="cls-12" d="M254.7,519.52v1.54h-3.32v9.11h-1.91v-9.11h-3.32v-1.54Z" transform="translate(-6.5 -14.77)"/><path class="cls-12" d="M264.1,517h-4.51v-1.63h11V517H266v13.2H264.1Z" transform="translate(-6.5 -14.77)"/><path class="cls-12" d="M284.12,522.6c0,5.11-3.1,7.81-6.89,7.81s-6.67-3-6.67-7.53c0-4.71,2.93-7.79,6.89-7.79S284.12,518.2,284.12,522.6Zm-11.51.24c0,3.17,1.72,6,4.73,6s4.75-2.79,4.75-6.16c0-2.95-1.54-6-4.73-6S272.61,519.59,272.61,522.84Z" transform="translate(-6.5 -14.77)"/><path class="cls-12" d="M285.28,532.88a31.53,31.53,0,0,0,1.32-5.26l2.16-.22a26.81,26.81,0,0,1-2.09,5.35Z" transform="translate(-6.5 -14.77)"/><path class="cls-12" d="M63.35,549.62H57.59V555H64v1.61H55.67V541.74h8v1.61h-6.1V548h5.77Z" transform="translate(-6.5 -14.77)"/><path class="cls-12" d="M68.34,545.92v4.62h.46l4-4.62h2.35l-4.64,4.82c1.72.18,2.75,1.32,3.59,3.23a22.47,22.47,0,0,0,1.14,2.6h-2a14.12,14.12,0,0,1-1-2.18,3.46,3.46,0,0,0-3.52-2.51h-.37v4.69H66.43V545.92Z" transform="translate(-6.5 -14.77)"/><path class="cls-12" d="M83.08,556.57l-.15-1.34h-.07a4,4,0,0,1-3.26,1.58,3,3,0,0,1-3.26-3.06c0-2.57,2.29-4,6.4-4v-.22a2.19,2.19,0,0,0-2.42-2.46,5.3,5.3,0,0,0-2.77.79l-.44-1.28a6.61,6.61,0,0,1,3.5-.95c3.26,0,4,2.22,4,4.36v4a15,15,0,0,0,.18,2.55Zm-.29-5.43c-2.11,0-4.51.33-4.51,2.4a1.71,1.71,0,0,0,1.83,1.85,2.65,2.65,0,0,0,2.57-1.78,2,2,0,0,0,.11-.62Z" transform="translate(-6.5 -14.77)"/><path class="cls-12" d="M94.83,545.92v1.54H91.51v9.11H89.6v-9.11H86.27v-1.54Z" transform="translate(-6.5 -14.77)"/><path class="cls-12" d="M97.32,551.6a3.41,3.41,0,0,0,3.65,3.7,7,7,0,0,0,2.95-.55l.33,1.39a8.62,8.62,0,0,1-3.54.66c-3.28,0-5.24-2.16-5.24-5.37s1.89-5.74,5-5.74c3.48,0,4.4,3.06,4.4,5a7.31,7.31,0,0,1-.07.9Zm5.68-1.39c0-1.23-.51-3.15-2.68-3.15-2,0-2.82,1.8-3,3.15Z" transform="translate(-6.5 -14.77)"/><path class="cls-12" d="M107.26,549.4c0-1.36,0-2.46-.09-3.48h1.74l.09,1.83h0a4.19,4.19,0,0,1,3.78-2.07c2.57,0,4.51,2.18,4.51,5.41,0,3.83-2.33,5.72-4.84,5.72a3.73,3.73,0,0,1-3.28-1.67h0v5.79h-1.91Zm1.91,2.84a4.36,4.36,0,0,0,.09.79,3,3,0,0,0,2.9,2.27c2,0,3.23-1.67,3.23-4.11,0-2.13-1.12-4-3.17-4a3.09,3.09,0,0,0-2.93,2.4,3.15,3.15,0,0,0-.13.79Z" transform="translate(-6.5 -14.77)"/><path class="cls-12" d="M121.56,545.92v4.49c0,1.69,0,2.75-.11,4.27l.07,0c.64-1.3,1-2,1.72-3.28l3.32-5.5h2.27v10.65H127v-4.51c0-1.74,0-2.64.13-4.36H127c-.68,1.36-1.14,2.22-1.76,3.3-1,1.65-2.18,3.7-3.32,5.57h-2.22V545.92Z" transform="translate(-6.5 -14.77)"/><path class="cls-12" d="M133.84,545.92v4.29h5.06v-4.29h1.91v10.65H138.9v-4.82h-5.06v4.82h-1.91V545.92Z" transform="translate(-6.5 -14.77)"/><path class="cls-12" d="M149.88,556.57l-.15-1.34h-.07a4,4,0,0,1-3.26,1.58,3,3,0,0,1-3.26-3.06c0-2.57,2.29-4,6.4-4v-.22a2.19,2.19,0,0,0-2.42-2.46,5.3,5.3,0,0,0-2.77.79l-.44-1.28a6.61,6.61,0,0,1,3.5-.95c3.26,0,4,2.22,4,4.36v4a15,15,0,0,0,.18,2.55Zm-.29-5.43c-2.11,0-4.51.33-4.51,2.4a1.71,1.71,0,0,0,1.83,1.85,2.65,2.65,0,0,0,2.57-1.78,2,2,0,0,0,.11-.62Z" transform="translate(-6.5 -14.77)"/><path class="cls-12" d="M154.12,555.43a1.3,1.3,0,0,1,1.32-1.39,1.39,1.39,0,1,1-1.32,1.39Z" transform="translate(-6.5 -14.77)"/></g></svg>